<svg width="36" height="36" viewBox="0 0 36 36" fill="none" xmlns="http://www.w3.org/2000/svg">
<rect width="36" height="36" rx="18" fill="#E6F7EA"/>
<rect x="0.421053" y="0.421053" width="35.1579" height="35.1579" rx="17.5789" stroke="black" stroke-opacity="0.03" stroke-width="0.842105"/>
<path d="M25.7549 24.1875L24.1049 17.5875C23.9399 16.845 23.2799 16.35 22.5374 16.35H21.2999V15.1125C21.2999 14.865 21.1349 14.7 20.8874 14.7H19.2374C18.9899 14.7 18.8249 14.865 18.8249 15.1125V16.35H17.1749V15.1125C17.1749 14.865 17.0099 14.7 16.7624 14.7H15.1124C14.8649 14.7 14.6999 14.865 14.6999 15.1125V16.35H13.5449C12.7199 16.35 12.0599 16.845 11.8949 17.5875L10.2449 24.1875C9.99738 25.26 10.8224 26.25 11.8949 26.25H24.1874C25.1774 26.25 26.0024 25.26 25.7549 24.1875ZM17.9999 24.6C16.1849 24.6 14.6999 23.115 14.6999 21.3C14.6999 19.485 16.1849 18 17.9999 18C19.8149 18 21.2999 19.485 21.2999 21.3C21.2999 23.115 19.8149 24.6 17.9999 24.6Z" fill="#098D26"/>
<path d="M18.0001 22.9499C18.9114 22.9499 19.6501 22.2112 19.6501 21.2999C19.6501 20.3886 18.9114 19.6499 18.0001 19.6499C17.0888 19.6499 16.3501 20.3886 16.3501 21.2999C16.3501 22.2112 17.0888 22.9499 18.0001 22.9499Z" fill="#098D26"/>
<path d="M18 9.75C13.4625 9.75 9.75 11.235 9.75 13.1325V14.7C9.75 15.195 10.1625 15.525 10.575 15.525H12.885C13.545 15.525 13.9575 14.865 13.6275 14.2875C13.38 13.71 13.7925 13.05 14.4525 13.05H21.63C22.29 13.05 22.7025 13.71 22.3725 14.2875C22.0425 14.865 22.455 15.525 23.115 15.525H25.425C25.92 15.525 26.25 15.1125 26.25 14.7V13.1325C26.25 11.235 22.5375 9.75 18 9.75Z" fill="#098D26"/>
</svg>
