<svg width="36" height="36" viewBox="0 0 36 36" fill="none" xmlns="http://www.w3.org/2000/svg">
<rect width="36" height="36" rx="18" fill="#E6F7EA"/>
<rect x="0.421053" y="0.421053" width="35.1579" height="35.1579" rx="17.5789" stroke="black" stroke-opacity="0.03" stroke-width="0.842105"/>
<path d="M17.1291 20.7041L15.4333 22.3999C15.0758 22.7574 14.5074 22.7574 14.1408 22.4091C14.0399 22.3083 13.9391 22.2166 13.8383 22.1158C12.8941 21.1624 12.0416 20.1633 11.2808 19.1183C10.5291 18.0733 9.92409 17.0283 9.48409 15.9924C9.05325 14.9474 8.83325 13.9483 8.83325 12.9949C8.83325 12.3716 8.94325 11.7758 9.16325 11.2258C9.38325 10.6666 9.73159 10.1533 10.2174 9.69492C10.8041 9.11742 11.4458 8.83325 12.1241 8.83325C12.3808 8.83325 12.6374 8.88825 12.8666 8.99825C13.1049 9.10825 13.3158 9.27325 13.4808 9.51159L15.6074 12.5091C15.7724 12.7383 15.8916 12.9491 15.9741 13.1508C16.0566 13.3433 16.1024 13.5358 16.1024 13.7099C16.1024 13.9299 16.0383 14.1499 15.9099 14.3608C15.7908 14.5716 15.6166 14.7916 15.3966 15.0116L14.6999 15.7358C14.5991 15.8366 14.5533 15.9558 14.5533 16.1024C14.5533 16.1758 14.5624 16.2399 14.5808 16.3133C14.6083 16.3866 14.6358 16.4416 14.6541 16.4966C14.8191 16.7991 15.1033 17.1933 15.5066 17.6699C15.9191 18.1466 16.3591 18.6324 16.8358 19.1183C16.9274 19.2099 17.0283 19.3016 17.1199 19.3933C17.4866 19.7508 17.4958 20.3374 17.1291 20.7041Z" fill="#098D26"/>
<path d="M27.1392 23.8026C27.1392 24.0593 27.0934 24.3251 27.0017 24.5818C26.9742 24.6551 26.9467 24.7285 26.91 24.8018C26.7542 25.1318 26.5525 25.4435 26.2867 25.7368C25.8375 26.2318 25.3425 26.5893 24.7834 26.8185C24.7742 26.8185 24.765 26.8276 24.7559 26.8276C24.215 27.0476 23.6284 27.1668 22.9959 27.1668C22.0609 27.1668 21.0617 26.9468 20.0075 26.4976C18.9534 26.0485 17.8992 25.4435 16.8542 24.6826C16.4967 24.4168 16.1392 24.1509 15.8 23.8668L18.7975 20.8693C19.0542 21.0618 19.2834 21.2085 19.4759 21.3093C19.5217 21.3276 19.5767 21.3551 19.6409 21.3826C19.7142 21.4101 19.7875 21.4193 19.87 21.4193C20.0259 21.4193 20.145 21.3643 20.2459 21.2635L20.9425 20.576C21.1717 20.3468 21.3917 20.1726 21.6025 20.0626C21.8134 19.9343 22.0242 19.8701 22.2534 19.8701C22.4275 19.8701 22.6109 19.9068 22.8125 19.9893C23.0142 20.0718 23.225 20.191 23.4542 20.3468L26.4884 22.501C26.7267 22.666 26.8917 22.8584 26.9925 23.0876C27.0842 23.3168 27.1392 23.546 27.1392 23.8026Z" fill="#098D26"/>
</svg>
