<svg width="36" height="36" viewBox="0 0 36 36" fill="none" xmlns="http://www.w3.org/2000/svg">
<rect width="36" height="36" rx="18" fill="#E6F7EA"/>
<rect x="0.421053" y="0.421053" width="35.1579" height="35.1579" rx="17.5789" stroke="black" stroke-opacity="0.03" stroke-width="0.842105"/>
<path d="M20.3283 8.72339C19.2008 8.72339 18.2842 9.64004 18.2842 10.7675V15.0209C18.2842 16.1484 19.2008 17.0651 20.3283 17.0651C21.4558 17.0651 22.3725 16.1484 22.3725 15.0209V10.7675C22.3725 9.6492 21.4558 8.72339 20.3283 8.72339Z" fill="#098D26"/>
<path d="M25.4983 13.5176C24.5175 13.5176 23.72 14.3151 23.72 15.2959V16.7351C23.72 16.9276 23.8758 17.0834 24.0683 17.0834H25.5075C26.4883 17.0834 27.2858 16.2859 27.2858 15.3051C27.2858 14.3243 26.4791 13.5176 25.4983 13.5176Z" fill="#098D26"/>
<path d="M14.7916 13.4075H10.5383C9.4108 13.4075 8.49414 14.3241 8.49414 15.4516C8.49414 16.5791 9.4108 17.4958 10.5383 17.4958H14.7916C15.9191 17.4958 16.8358 16.5791 16.8358 15.4516C16.8358 14.3241 15.9191 13.4075 14.7916 13.4075Z" fill="#098D26"/>
<path d="M15.0574 8.48511C14.0765 8.48511 13.2791 9.28261 13.2791 10.2634C13.2791 11.2443 14.0765 12.0418 15.0574 12.0418H16.4965C16.689 12.0418 16.8449 11.8859 16.8449 11.6934V10.2543C16.8357 9.29177 16.0382 8.48511 15.0574 8.48511Z" fill="#098D26"/>
<path d="M15.6443 18.9441C14.5168 18.9441 13.6001 19.8608 13.6001 20.9883V25.2416C13.6001 26.3691 14.5168 27.2858 15.6443 27.2858C16.7718 27.2858 17.6884 26.3691 17.6884 25.2416V20.9883C17.6884 19.8608 16.7718 18.9441 15.6443 18.9441Z" fill="#098D26"/>
<path d="M11.9133 18.9441H10.4741C9.49329 18.9441 8.6958 19.7416 8.6958 20.7224C8.6958 21.7033 9.49329 22.5008 10.4741 22.5008C11.455 22.5008 12.2525 21.7033 12.2525 20.7224V19.2833C12.2525 19.0999 12.0966 18.9441 11.9133 18.9441Z" fill="#098D26"/>
<path d="M25.4342 18.5225H21.1809C20.0534 18.5225 19.1367 19.4391 19.1367 20.5666C19.1367 21.6941 20.0534 22.6108 21.1809 22.6108H25.4342C26.5617 22.6108 27.4784 21.6941 27.4784 20.5666C27.4784 19.4391 26.5617 18.5225 25.4342 18.5225Z" fill="#098D26"/>
<path d="M20.9149 23.9309H19.4758C19.2833 23.9309 19.1274 24.0867 19.1274 24.2792V25.7184C19.1274 26.6993 19.9249 27.4967 20.9058 27.4967C21.8866 27.4967 22.6841 26.6993 22.6841 25.7184C22.6933 24.7284 21.8958 23.9309 20.9149 23.9309Z" fill="#098D26"/>
</svg>
