<svg width="36" height="36" viewBox="0 0 36 36" fill="none" xmlns="http://www.w3.org/2000/svg">
<rect width="36" height="36" rx="18" fill="#E6F7EA"/>
<rect x="0.421053" y="0.421053" width="35.1579" height="35.1579" rx="17.5789" stroke="black" stroke-opacity="0.03" stroke-width="0.842105"/>
<path d="M27.1483 17.4592C26.8366 12.1426 22.0058 8.04509 16.4416 8.96175C12.6099 9.59425 9.53911 12.7017 8.94328 16.5334C8.59494 18.7517 9.0533 20.8509 10.0525 22.5834L9.23662 25.6176C9.05328 26.3051 9.68576 26.9284 10.3641 26.7359L13.3524 25.9109C14.7091 26.7084 16.2949 27.1667 17.9908 27.1667C23.1608 27.1667 27.4508 22.6109 27.1483 17.4592ZM22.4733 21.4101C22.3908 21.5751 22.2899 21.7309 22.1616 21.8776C21.9324 22.1251 21.6849 22.3084 21.4099 22.4184C21.1349 22.5376 20.8324 22.5926 20.5116 22.5926C20.0441 22.5926 19.5399 22.4826 19.0174 22.2534C18.4858 22.0243 17.9633 21.7217 17.4408 21.3459C16.9091 20.9609 16.4141 20.5301 15.9374 20.0626C15.4608 19.5859 15.0391 19.0817 14.6541 18.5592C14.2783 18.0367 13.9758 17.5142 13.7558 16.9917C13.5358 16.4692 13.4258 15.9651 13.4258 15.4884C13.4258 15.1767 13.4808 14.8742 13.5908 14.5992C13.7008 14.3151 13.875 14.0584 14.1225 13.8293C14.4158 13.5359 14.7366 13.3984 15.0758 13.3984C15.2041 13.3984 15.3324 13.4259 15.4516 13.4809C15.5708 13.5359 15.6808 13.6184 15.7633 13.7376L16.8266 15.2409C16.9091 15.3601 16.9733 15.4609 17.0099 15.5617C17.0558 15.6626 17.0741 15.7542 17.0741 15.8459C17.0741 15.9559 17.0375 16.0659 16.9733 16.1759C16.9091 16.2859 16.8266 16.3959 16.7166 16.5059L16.3683 16.8726C16.3133 16.9276 16.295 16.9826 16.295 17.0559C16.295 17.0926 16.3041 17.1292 16.3133 17.1659C16.3316 17.2026 16.3408 17.2301 16.35 17.2576C16.4325 17.4134 16.5791 17.6059 16.7808 17.8442C16.9916 18.0826 17.2116 18.3301 17.45 18.5684C17.6975 18.8159 17.9358 19.0359 18.1833 19.2467C18.4216 19.4484 18.6233 19.5859 18.7791 19.6684C18.8066 19.6776 18.8341 19.6959 18.8616 19.7051C18.8983 19.7234 18.935 19.7234 18.9808 19.7234C19.0633 19.7234 19.1183 19.6959 19.1733 19.6409L19.5216 19.2926C19.6408 19.1734 19.7508 19.0909 19.8516 19.0359C19.9616 18.9717 20.0625 18.9351 20.1816 18.9351C20.2733 18.9351 20.365 18.9534 20.4658 18.9992C20.5666 19.0451 20.6766 19.1001 20.7866 19.1826L22.3083 20.2642C22.4275 20.3467 22.5099 20.4476 22.5649 20.5576C22.6108 20.6767 22.6383 20.7867 22.6383 20.9151C22.5833 21.0709 22.5466 21.2451 22.4733 21.4101Z" fill="#098D26"/>
</svg>
