<svg width="36" height="36" viewBox="0 0 36 36" fill="none" xmlns="http://www.w3.org/2000/svg">
<rect width="36" height="36" rx="18" fill="#FFF1F2"/>
<rect x="0.421053" y="0.421053" width="35.1579" height="35.1579" rx="17.5789" stroke="black" stroke-opacity="0.03" stroke-width="0.842105"/>
<path d="M17.1292 20.7042L15.4334 22.4C15.0759 22.7575 14.5075 22.7575 14.1409 22.4092C14.04 22.3084 13.9392 22.2167 13.8384 22.1159C12.8942 21.1625 12.0417 20.1634 11.2809 19.1184C10.5292 18.0734 9.92421 17.0284 9.48421 15.9925C9.05337 14.9475 8.83337 13.9484 8.83337 12.995C8.83337 12.3717 8.94337 11.7759 9.16337 11.2259C9.38337 10.6667 9.73171 10.1534 10.2175 9.69504C10.8042 9.11754 11.4459 8.83337 12.1242 8.83337C12.3809 8.83337 12.6375 8.88837 12.8667 8.99837C13.105 9.10837 13.3159 9.27337 13.4809 9.51171L15.6075 12.5092C15.7725 12.7384 15.8917 12.9492 15.9742 13.1509C16.0567 13.3434 16.1025 13.5359 16.1025 13.71C16.1025 13.93 16.0384 14.15 15.91 14.3609C15.7909 14.5717 15.6167 14.7917 15.3967 15.0117L14.7 15.7359C14.5992 15.8367 14.5534 15.9559 14.5534 16.1025C14.5534 16.1759 14.5625 16.24 14.5809 16.3134C14.6084 16.3867 14.6359 16.4417 14.6542 16.4967C14.8192 16.7992 15.1034 17.1934 15.5067 17.67C15.9192 18.1467 16.3592 18.6325 16.8359 19.1184C16.9275 19.21 17.0284 19.3017 17.12 19.3934C17.4867 19.7509 17.4959 20.3375 17.1292 20.7042Z" fill="#E11D48"/>
<path d="M27.1392 23.8025C27.1392 24.0592 27.0934 24.325 27.0017 24.5817C26.9742 24.655 26.9467 24.7283 26.91 24.8017C26.7542 25.1317 26.5525 25.4433 26.2867 25.7367C25.8375 26.2317 25.3425 26.5892 24.7834 26.8183C24.7742 26.8183 24.765 26.8275 24.7559 26.8275C24.215 27.0475 23.6284 27.1667 22.9959 27.1667C22.0609 27.1667 21.0617 26.9467 20.0075 26.4975C18.9534 26.0483 17.8992 25.4433 16.8542 24.6825C16.4967 24.4167 16.1392 24.1508 15.8 23.8667L18.7975 20.8692C19.0542 21.0617 19.2834 21.2083 19.4759 21.3092C19.5217 21.3275 19.5767 21.355 19.6409 21.3825C19.7142 21.41 19.7875 21.4192 19.87 21.4192C20.0259 21.4192 20.145 21.3642 20.2459 21.2633L20.9425 20.5758C21.1717 20.3467 21.3917 20.1725 21.6025 20.0625C21.8134 19.9342 22.0242 19.87 22.2534 19.87C22.4275 19.87 22.6109 19.9067 22.8125 19.9892C23.0142 20.0717 23.225 20.1908 23.4542 20.3467L26.4884 22.5008C26.7267 22.6658 26.8917 22.8583 26.9925 23.0875C27.0842 23.3167 27.1392 23.5458 27.1392 23.8025Z" fill="#E11D48"/>
</svg>
