<svg width="36" height="36" viewBox="0 0 36 36" fill="none" xmlns="http://www.w3.org/2000/svg">
<rect width="36" height="36" rx="18" fill="#FFF1F2"/>
<rect x="0.421053" y="0.421053" width="35.1579" height="35.1579" rx="17.5789" stroke="black" stroke-opacity="0.03" stroke-width="0.842105"/>
<path d="M10.6667 25.3333C10.1625 25.3333 9.7311 25.1539 9.37237 24.7952C9.01365 24.4365 8.83399 24.0047 8.83337 23.5V12.5C8.83337 11.9958 9.01304 11.5643 9.37237 11.2056C9.73171 10.8469 10.1632 10.6672 10.6667 10.6666H25.3334C25.8375 10.6666 26.2693 10.8463 26.6286 11.2056C26.988 11.565 27.1673 11.9964 27.1667 12.5V23.5C27.1667 24.0041 26.9873 24.4359 26.6286 24.7952C26.2699 25.1545 25.8382 25.3339 25.3334 25.3333H10.6667ZM18 18.9166L25.3334 14.3333V12.5L18 17.0833L10.6667 12.5V14.3333L18 18.9166Z" fill="#E11D48"/>
</svg>
