<svg width="36" height="36" viewBox="0 0 36 36" fill="none" xmlns="http://www.w3.org/2000/svg">
<rect width="36" height="36" rx="18" fill="#FFF1F2"/>
<rect x="0.421053" y="0.421053" width="35.1579" height="35.1579" rx="17.5789" stroke="black" stroke-opacity="0.03" stroke-width="0.842105"/>
<path d="M22.3865 24.9366H24.6504C24.7324 24.9366 24.8111 24.904 24.8691 24.846C24.9272 24.788 24.9598 24.7093 24.9598 24.6273L24.9609 19.8442C24.9609 17.3442 24.4222 15.4226 21.5007 15.4226C20.3902 15.3813 19.3428 15.9538 18.7777 16.9098C18.7749 16.9144 18.7707 16.918 18.7657 16.92C18.7607 16.9221 18.7552 16.9224 18.75 16.921C18.7447 16.9196 18.7401 16.9165 18.7368 16.9122C18.7335 16.908 18.7317 16.9027 18.7317 16.8973V15.9628C18.7317 15.8807 18.6991 15.802 18.6411 15.744C18.583 15.686 18.5043 15.6534 18.4223 15.6534H16.2739C16.1919 15.6534 16.1132 15.686 16.0552 15.744C15.9971 15.802 15.9645 15.8807 15.9645 15.9628V24.6268C15.9645 24.7089 15.9971 24.7876 16.0552 24.8456C16.1132 24.9036 16.1919 24.9362 16.2739 24.9362H18.5376C18.6197 24.9362 18.6984 24.9036 18.7564 24.8456C18.8144 24.7876 18.847 24.7089 18.847 24.6268V20.3441C18.847 19.1331 19.0767 17.9603 20.578 17.9603C22.058 17.9603 22.0772 19.346 22.0772 20.4225V24.6272C22.0772 24.7093 22.1098 24.7879 22.1678 24.846C22.2258 24.904 22.3045 24.9366 22.3865 24.9366ZM11.0391 12.7119C11.0391 13.6295 11.7945 14.3845 12.7122 14.3845C13.6296 14.3844 14.3846 13.6289 14.3846 12.7115C14.3844 11.794 13.6294 11.0391 12.7119 11.0391C11.7941 11.0391 11.0391 11.7942 11.0391 12.7119ZM11.5773 24.9366H13.844C13.9261 24.9366 14.0048 24.904 14.0628 24.846C14.1208 24.7879 14.1534 24.7093 14.1534 24.6272V15.9628C14.1534 15.8807 14.1208 15.802 14.0628 15.744C14.0048 15.686 13.9261 15.6534 13.844 15.6534H11.5773C11.4952 15.6534 11.4166 15.686 11.3585 15.744C11.3005 15.802 11.2679 15.8807 11.2679 15.9628V24.6272C11.2679 24.7093 11.3005 24.7879 11.3585 24.846C11.4166 24.904 11.4952 24.9366 11.5773 24.9366Z" fill="#E11D48"/>
</svg>
