<svg width="36" height="36" viewBox="0 0 36 36" fill="none" xmlns="http://www.w3.org/2000/svg">
<rect width="36" height="36" rx="18" fill="#FFF1F2"/>
<rect x="0.421053" y="0.421053" width="35.1579" height="35.1579" rx="17.5789" stroke="black" stroke-opacity="0.03" stroke-width="0.842105"/>
<path opacity="0.97" d="M21.8409 8.83337H14.1592C10.8225 8.83337 8.83337 10.8225 8.83337 14.1592V21.8317C8.83337 25.1775 10.8225 27.1667 14.1592 27.1667H21.8317C25.1684 27.1667 27.1575 25.1775 27.1575 21.8409V14.1592C27.1667 10.8225 25.1775 8.83337 21.8409 8.83337ZM14.6175 21.9509C13.9575 21.9509 13.4167 21.41 13.4167 20.75C13.4167 20.09 13.9575 19.5492 14.6175 19.5492C15.2775 19.5492 15.8184 20.09 15.8184 20.75C15.8184 21.41 15.2775 21.9509 14.6175 21.9509ZM18 16.4509C17.34 16.4509 16.7992 15.91 16.7992 15.25C16.7992 14.59 17.34 14.0492 18 14.0492C18.66 14.0492 19.2009 14.59 19.2009 15.25C19.2009 15.91 18.66 16.4509 18 16.4509ZM21.3825 21.9509C20.7225 21.9509 20.1817 21.41 20.1817 20.75C20.1817 20.09 20.7225 19.5492 21.3825 19.5492C22.0425 19.5492 22.5834 20.09 22.5834 20.75C22.5834 21.41 22.0425 21.9509 21.3825 21.9509Z" fill="#E11D48"/>
</svg>
