<svg width="36" height="36" viewBox="0 0 36 36" fill="none" xmlns="http://www.w3.org/2000/svg">
<rect width="36" height="36" rx="18" fill="#FFF1F2"/>
<rect x="0.421053" y="0.421053" width="35.1579" height="35.1579" rx="17.5789" stroke="black" stroke-opacity="0.03" stroke-width="0.842105"/>
<path d="M18 18C20.5313 18 22.5833 15.948 22.5833 13.4167C22.5833 10.8854 20.5313 8.83337 18 8.83337C15.4687 8.83337 13.4166 10.8854 13.4166 13.4167C13.4166 15.948 15.4687 18 18 18Z" fill="#E11D48"/>
<path d="M18 20.2916C13.4075 20.2916 9.66748 23.3716 9.66748 27.1666C9.66748 27.4233 9.86915 27.625 10.1258 27.625H25.8741C26.1308 27.625 26.3325 27.4233 26.3325 27.1666C26.3325 23.3716 22.5925 20.2916 18 20.2916Z" fill="#E11D48"/>
</svg>
