<svg width="36" height="36" viewBox="0 0 36 36" fill="none" xmlns="http://www.w3.org/2000/svg">
<rect width="36" height="36" rx="18" fill="#FFF1F2"/>
<rect x="0.421053" y="0.421053" width="35.1579" height="35.1579" rx="17.5789" stroke="black" stroke-opacity="0.03" stroke-width="0.842105"/>
<g clip-path="url(#clip0_6040_12662)">
<path d="M14.0126 26.1676C13.9851 26.1676 13.9484 26.1859 13.9209 26.1859C12.1426 25.3059 10.6942 23.8484 9.80505 22.0701C9.80505 22.0426 9.82339 22.0059 9.82339 21.9784C10.9417 22.3084 12.0967 22.5559 13.2426 22.7484C13.4442 23.9034 13.6826 25.0492 14.0126 26.1676Z" fill="#E11D48"/>
<path d="M26.195 22.0792C25.2875 23.9034 23.775 25.3792 21.9325 26.2684C22.2808 25.1042 22.5742 23.9309 22.7667 22.7484C23.9217 22.5559 25.0583 22.3084 26.1767 21.9784C26.1675 22.0151 26.195 22.0517 26.195 22.0792Z" fill="#E11D48"/>
<path d="M26.2683 14.0675C25.1133 13.7192 23.9492 13.435 22.7667 13.2334C22.5742 12.0509 22.29 10.8775 21.9325 9.73169C23.83 10.6392 25.3608 12.17 26.2683 14.0675Z" fill="#E11D48"/>
<path d="M14.0125 9.83255C13.6825 10.9509 13.4442 12.0876 13.2517 13.2426C12.0692 13.4259 10.8959 13.7192 9.73169 14.0676C10.6209 12.2251 12.0967 10.7126 13.9209 9.80505C13.9484 9.80505 13.985 9.83255 14.0125 9.83255Z" fill="#E11D48"/>
<path d="M21.1991 13.0409C19.0724 12.8025 16.9274 12.8025 14.8008 13.0409C15.0299 11.785 15.3233 10.5292 15.7358 9.31921C15.7541 9.24587 15.7449 9.19087 15.7541 9.11754C16.4783 8.94337 17.2208 8.83337 17.9999 8.83337C18.7699 8.83337 19.5216 8.94337 20.2366 9.11754C20.2458 9.19087 20.2458 9.24587 20.2641 9.31921C20.6766 10.5384 20.9699 11.785 21.1991 13.0409Z" fill="#E11D48"/>
<path d="M13.0409 21.1991C11.7759 20.9699 10.5292 20.6766 9.31921 20.2641C9.24587 20.2458 9.19087 20.2549 9.11754 20.2458C8.94337 19.5216 8.83337 18.7791 8.83337 17.9999C8.83337 17.2299 8.94337 16.4783 9.11754 15.7633C9.19087 15.7541 9.24587 15.7541 9.31921 15.7358C10.5384 15.3324 11.7759 15.0299 13.0409 14.8008C12.8117 16.9274 12.8117 19.0724 13.0409 21.1991Z" fill="#E11D48"/>
<path d="M27.1666 17.9999C27.1666 18.7791 27.0566 19.5216 26.8824 20.2458C26.8091 20.2549 26.7541 20.2458 26.6808 20.2641C25.4616 20.6674 24.2149 20.9699 22.9591 21.1991C23.1974 19.0724 23.1974 16.9274 22.9591 14.8008C24.2149 15.0299 25.4708 15.3233 26.6808 15.7358C26.7541 15.7541 26.8091 15.7633 26.8824 15.7633C27.0566 16.4874 27.1666 17.2299 27.1666 17.9999Z" fill="#E11D48"/>
<path d="M21.1991 22.9591C20.9699 24.2241 20.6766 25.4708 20.2641 26.6808C20.2458 26.7541 20.2458 26.8091 20.2366 26.8824C19.5216 27.0566 18.7699 27.1666 17.9999 27.1666C17.2208 27.1666 16.4783 27.0566 15.7541 26.8824C15.7449 26.8091 15.7541 26.7541 15.7358 26.6808C15.3324 25.4616 15.0299 24.2241 14.8008 22.9591C15.8641 23.0783 16.9274 23.1608 17.9999 23.1608C19.0724 23.1608 20.1449 23.0783 21.1991 22.9591Z" fill="#E11D48"/>
<path d="M21.4498 21.4498C19.1571 21.739 16.843 21.739 14.5503 21.4498C14.2611 19.1571 14.2611 16.843 14.5503 14.5503C16.843 14.2611 19.1571 14.2611 21.4498 14.5503C21.739 16.843 21.739 19.1571 21.4498 21.4498Z" fill="#E11D48"/>
</g>
<defs>
<clipPath id="clip0_6040_12662">
<rect width="22" height="22" fill="white" transform="translate(7 7)"/>
</clipPath>
</defs>
</svg>
