<svg width="36" height="36" viewBox="0 0 36 36" fill="none" xmlns="http://www.w3.org/2000/svg">
<rect width="36" height="36" rx="18" fill="#FFF1F2"/>
<rect x="0.421053" y="0.421053" width="35.1579" height="35.1579" rx="17.5789" stroke="black" stroke-opacity="0.03" stroke-width="0.842105"/>
<path d="M27.1483 17.4591C26.8366 12.1425 22.0058 8.04497 16.4416 8.96163C12.6099 9.59413 9.53911 12.7016 8.94328 16.5333C8.59494 18.7516 9.0533 20.8508 10.0525 22.5833L9.23662 25.6174C9.05328 26.3049 9.68576 26.9283 10.3641 26.7358L13.3524 25.9108C14.7091 26.7083 16.2949 27.1666 17.9908 27.1666C23.1608 27.1666 27.4508 22.6108 27.1483 17.4591ZM22.4733 21.41C22.3908 21.575 22.2899 21.7308 22.1616 21.8775C21.9324 22.125 21.6849 22.3083 21.4099 22.4183C21.1349 22.5375 20.8324 22.5925 20.5116 22.5925C20.0441 22.5925 19.5399 22.4825 19.0174 22.2533C18.4858 22.0241 17.9633 21.7216 17.4408 21.3458C16.9091 20.9608 16.4141 20.53 15.9374 20.0625C15.4608 19.5858 15.0391 19.0816 14.6541 18.5591C14.2783 18.0366 13.9758 17.5141 13.7558 16.9916C13.5358 16.4691 13.4258 15.965 13.4258 15.4883C13.4258 15.1766 13.4808 14.8741 13.5908 14.5991C13.7008 14.315 13.875 14.0583 14.1225 13.8291C14.4158 13.5358 14.7366 13.3983 15.0758 13.3983C15.2041 13.3983 15.3324 13.4258 15.4516 13.4808C15.5708 13.5358 15.6808 13.6183 15.7633 13.7375L16.8266 15.2408C16.9091 15.3599 16.9733 15.4608 17.0099 15.5616C17.0558 15.6624 17.0741 15.7541 17.0741 15.8458C17.0741 15.9558 17.0375 16.0658 16.9733 16.1758C16.9091 16.2858 16.8266 16.3958 16.7166 16.5058L16.3683 16.8724C16.3133 16.9274 16.295 16.9825 16.295 17.0558C16.295 17.0925 16.3041 17.1291 16.3133 17.1658C16.3316 17.2024 16.3408 17.23 16.35 17.2575C16.4325 17.4133 16.5791 17.6058 16.7808 17.8441C16.9916 18.0824 17.2116 18.3299 17.45 18.5683C17.6975 18.8158 17.9358 19.0358 18.1833 19.2466C18.4216 19.4483 18.6233 19.5858 18.7791 19.6683C18.8066 19.6775 18.8341 19.6958 18.8616 19.7049C18.8983 19.7233 18.935 19.7233 18.9808 19.7233C19.0633 19.7233 19.1183 19.6958 19.1733 19.6408L19.5216 19.2925C19.6408 19.1733 19.7508 19.0908 19.8516 19.0358C19.9616 18.9716 20.0625 18.9349 20.1816 18.9349C20.2733 18.9349 20.365 18.9533 20.4658 18.9991C20.5666 19.0449 20.6766 19.1 20.7866 19.1825L22.3083 20.2641C22.4275 20.3466 22.5099 20.4475 22.5649 20.5575C22.6108 20.6766 22.6383 20.7866 22.6383 20.9149C22.5833 21.0708 22.5466 21.245 22.4733 21.41Z" fill="#E11D48"/>
</svg>
