<svg width="36" height="36" viewBox="0 0 36 36" fill="none" xmlns="http://www.w3.org/2000/svg">
<rect width="36" height="36" rx="18" fill="#F5F5F5"/>
<rect x="0.421053" y="0.421053" width="35.1579" height="35.1579" rx="17.5789" stroke="black" stroke-opacity="0.03" stroke-width="0.842105"/>
<path d="M19.091 12.5H13.2243C12.986 12.5 12.7568 12.5092 12.5368 12.5367C10.071 12.7475 8.8335 14.205 8.8335 16.8908V20.5575C8.8335 24.2242 10.3002 24.9483 13.2243 24.9483H13.591C13.7927 24.9483 14.0585 25.0858 14.1777 25.2417L15.2777 26.7083C15.7635 27.3592 16.5518 27.3592 17.0377 26.7083L18.1377 25.2417C18.2752 25.0583 18.4952 24.9483 18.7243 24.9483H19.091C21.7768 24.9483 23.2343 23.72 23.4452 21.245C23.4727 21.025 23.4818 20.7958 23.4818 20.5575V16.8908C23.4818 13.9667 22.0152 12.5 19.091 12.5ZM12.9585 19.8333C12.4452 19.8333 12.0418 19.4208 12.0418 18.9167C12.0418 18.4125 12.4543 18 12.9585 18C13.4627 18 13.8752 18.4125 13.8752 18.9167C13.8752 19.4208 13.4627 19.8333 12.9585 19.8333ZM16.1577 19.8333C15.6443 19.8333 15.241 19.4208 15.241 18.9167C15.241 18.4125 15.6535 18 16.1577 18C16.6618 18 17.0743 18.4125 17.0743 18.9167C17.0743 19.4208 16.671 19.8333 16.1577 19.8333ZM19.366 19.8333C18.8527 19.8333 18.4493 19.4208 18.4493 18.9167C18.4493 18.4125 18.8618 18 19.366 18C19.8702 18 20.2827 18.4125 20.2827 18.9167C20.2827 19.4208 19.8702 19.8333 19.366 19.8333Z" fill="#78716C"/>
<path d="M27.1482 13.2241V16.8908C27.1482 18.7241 26.5799 19.9708 25.4432 20.6583C25.1682 20.8233 24.8474 20.6033 24.8474 20.2824L24.8566 16.8908C24.8566 13.2241 22.7574 11.1249 19.0907 11.1249L13.5082 11.1341C13.1874 11.1341 12.9674 10.8133 13.1324 10.5383C13.8199 9.40159 15.0666 8.83325 16.8907 8.83325H22.7574C25.6816 8.83325 27.1482 10.2999 27.1482 13.2241Z" fill="#78716C"/>
</svg>
