<svg width="36" height="36" viewBox="0 0 36 36" fill="none" xmlns="http://www.w3.org/2000/svg">
<rect width="36" height="36" rx="18" fill="#F5F5F5"/>
<rect x="0.421053" y="0.421053" width="35.1579" height="35.1579" rx="17.5789" stroke="black" stroke-opacity="0.03" stroke-width="0.842105"/>
<path d="M17.0834 8.82422C12.5276 8.82422 8.82422 12.5276 8.82422 17.0834C8.82422 21.6392 12.5276 25.3426 17.0834 25.3426C21.6392 25.3426 25.3426 21.6392 25.3426 17.0834C25.3426 12.5276 21.6392 8.82422 17.0834 8.82422ZM17.0834 19.1459H14.3334C13.9576 19.1459 13.6459 18.8342 13.6459 18.4584C13.6459 18.0826 13.9576 17.7709 14.3334 17.7709H17.0834C17.4592 17.7709 17.7709 18.0826 17.7709 18.4584C17.7709 18.8342 17.4592 19.1459 17.0834 19.1459ZM19.8334 16.3959H14.3334C13.9576 16.3959 13.6459 16.0842 13.6459 15.7084C13.6459 15.3326 13.9576 15.0209 14.3334 15.0209H19.8334C20.2092 15.0209 20.5209 15.3326 20.5209 15.7084C20.5209 16.0842 20.2092 16.3959 19.8334 16.3959Z" fill="#78716C"/>
<path d="M27.1574 24.3708C26.8549 23.8117 26.2132 23.5 25.3516 23.5C24.7007 23.5 24.1416 23.7658 23.8116 24.2242C23.4816 24.6825 23.4082 25.2967 23.6099 25.9108C24.0041 27.1025 24.6916 27.3683 25.0674 27.4142C25.1224 27.4233 25.1774 27.4233 25.2416 27.4233C25.6449 27.4233 26.2682 27.2492 26.8732 26.3417C27.3591 25.6358 27.4507 24.93 27.1574 24.3708Z" fill="#78716C"/>
</svg>
