<svg width="36" height="36" viewBox="0 0 36 36" fill="none" xmlns="http://www.w3.org/2000/svg">
<rect width="36" height="36" rx="18" fill="#F5F5F5"/>
<rect x="0.421053" y="0.421053" width="35.1579" height="35.1579" rx="17.5789" stroke="black" stroke-opacity="0.03" stroke-width="0.842105"/>
<path opacity="0.97" d="M21.841 8.83325H14.1593C10.8227 8.83325 8.8335 10.8224 8.8335 14.1591V21.8316C8.8335 25.1774 10.8227 27.1666 14.1593 27.1666H21.8318C25.1685 27.1666 27.1577 25.1774 27.1577 21.8408V14.1591C27.1668 10.8224 25.1777 8.83325 21.841 8.83325ZM14.6177 21.9508C13.9577 21.9508 13.4168 21.4099 13.4168 20.7499C13.4168 20.0899 13.9577 19.5491 14.6177 19.5491C15.2777 19.5491 15.8185 20.0899 15.8185 20.7499C15.8185 21.4099 15.2777 21.9508 14.6177 21.9508ZM18.0002 16.4508C17.3402 16.4508 16.7993 15.9099 16.7993 15.2499C16.7993 14.5899 17.3402 14.0491 18.0002 14.0491C18.6602 14.0491 19.201 14.5899 19.201 15.2499C19.201 15.9099 18.6602 16.4508 18.0002 16.4508ZM21.3827 21.9508C20.7227 21.9508 20.1818 21.4099 20.1818 20.7499C20.1818 20.0899 20.7227 19.5491 21.3827 19.5491C22.0427 19.5491 22.5835 20.0899 22.5835 20.7499C22.5835 21.4099 22.0427 21.9508 21.3827 21.9508Z" fill="#78716C"/>
</svg>
