<svg width="36" height="36" viewBox="0 0 36 36" fill="none" xmlns="http://www.w3.org/2000/svg">
<rect width="36" height="36" rx="18" fill="#F5F5F5"/>
<rect x="0.421053" y="0.421053" width="35.1579" height="35.1579" rx="17.5789" stroke="black" stroke-opacity="0.03" stroke-width="0.842105"/>
<path d="M21.6667 8.83325H14.3333C11.125 8.83325 9.75 10.6666 9.75 13.4166V22.5833C9.75 25.3333 11.125 27.1666 14.3333 27.1666H21.6667C24.875 27.1666 26.25 25.3333 26.25 22.5833V13.4166C26.25 10.6666 24.875 8.83325 21.6667 8.83325ZM14.3333 18.2291H18C18.3758 18.2291 18.6875 18.5408 18.6875 18.9166C18.6875 19.2924 18.3758 19.6041 18 19.6041H14.3333C13.9575 19.6041 13.6458 19.2924 13.6458 18.9166C13.6458 18.5408 13.9575 18.2291 14.3333 18.2291ZM21.6667 23.2708H14.3333C13.9575 23.2708 13.6458 22.9591 13.6458 22.5833C13.6458 22.2074 13.9575 21.8958 14.3333 21.8958H21.6667C22.0425 21.8958 22.3542 22.2074 22.3542 22.5833C22.3542 22.9591 22.0425 23.2708 21.6667 23.2708ZM23.9583 15.4791H22.125C20.7317 15.4791 19.6042 14.3516 19.6042 12.9583V11.1249C19.6042 10.7491 19.9158 10.4374 20.2917 10.4374C20.6675 10.4374 20.9792 10.7491 20.9792 11.1249V12.9583C20.9792 13.5908 21.4925 14.1041 22.125 14.1041H23.9583C24.3342 14.1041 24.6458 14.4158 24.6458 14.7916C24.6458 15.1674 24.3342 15.4791 23.9583 15.4791Z" fill="#78716C"/>
</svg>
