<svg width="36" height="36" viewBox="0 0 36 36" fill="none" xmlns="http://www.w3.org/2000/svg">
<rect width="36" height="36" rx="18" fill="#F5F5F5"/>
<rect x="0.421053" y="0.421053" width="35.1579" height="35.1579" rx="17.5789" stroke="black" stroke-opacity="0.03" stroke-width="0.842105"/>
<path d="M25.9567 19.7509V19.7417C25.15 18.8892 24.0225 18.3667 22.7667 18.3667C20.3375 18.3667 18.3667 20.3375 18.3667 22.7667C18.3667 23.8942 18.7975 24.9209 19.4942 25.7C20.3009 26.5984 21.465 27.1667 22.7667 27.1667C25.1959 27.1667 27.1667 25.1959 27.1667 22.7667C27.1667 21.6025 26.7084 20.5392 25.9567 19.7509ZM24.4075 23.5092H23.4542V24.5084C23.4542 24.8842 23.1425 25.1959 22.7667 25.1959C22.3909 25.1959 22.0792 24.8842 22.0792 24.5084V23.5092H21.1259C20.7409 23.5092 20.4384 23.2067 20.4384 22.8217C20.4384 22.4459 20.7317 22.1434 21.1167 22.1342H22.0792V21.2175C22.0792 21.1992 22.0792 21.1809 22.0884 21.1625C22.1067 20.8142 22.4092 20.53 22.7667 20.53C23.1334 20.53 23.4359 20.8234 23.4542 21.19V22.1342H24.4075C24.7925 22.1342 25.095 22.4459 25.095 22.8217C25.095 23.2067 24.7925 23.5092 24.4075 23.5092Z" fill="#78716C"/>
<path d="M27.1668 15.0026C27.1668 16.0934 26.9927 17.1018 26.6902 18.0368C26.6352 18.2293 26.406 18.2843 26.241 18.1651C25.2418 17.4226 24.0227 17.0284 22.7668 17.0284C19.586 17.0284 16.9918 19.6226 16.9918 22.8034C16.9918 23.7934 17.2485 24.7651 17.7343 25.6268C17.881 25.8834 17.7068 26.2134 17.4318 26.1126C15.2227 25.3609 10.7585 22.6201 9.31016 18.0368C9.00766 17.1018 8.8335 16.0934 8.8335 15.0026C8.8335 12.1701 11.116 9.87842 13.9302 9.87842C15.5893 9.87842 17.0743 10.6851 18.0002 11.9226C18.926 10.6851 20.411 9.87842 22.0702 9.87842C24.8843 9.87842 27.1668 12.1701 27.1668 15.0026Z" fill="#78716C"/>
</svg>
