<svg width="36" height="36" viewBox="0 0 36 36" fill="none" xmlns="http://www.w3.org/2000/svg">
<rect width="36" height="36" rx="18" fill="#FFF6E5"/>
<rect x="0.421053" y="0.421053" width="35.1579" height="35.1579" rx="17.5789" stroke="black" stroke-opacity="0.03" stroke-width="0.842105"/>
<path d="M27.1667 11.4457V22.3449C27.1667 23.234 26.4425 24.0499 25.5533 24.1599L25.2692 24.1965C23.7658 24.3982 21.6483 25.0215 19.9433 25.7365C19.3475 25.984 18.6875 25.5349 18.6875 24.884V12.1332C18.6875 11.794 18.88 11.4824 19.1825 11.3174C20.86 10.4099 23.3992 9.60321 25.1225 9.45654H25.1775C26.2775 9.45654 27.1667 10.3457 27.1667 11.4457Z" fill="#C9A301"/>
<path d="M16.8176 11.3174C15.1401 10.4099 12.6009 9.60321 10.8776 9.45654H10.8134C9.71339 9.45654 8.82422 10.3457 8.82422 11.4457V22.3449C8.82422 23.234 9.54839 24.0499 10.4376 24.1599L10.7217 24.1965C12.2251 24.3982 14.3426 25.0215 16.0476 25.7365C16.6434 25.984 17.3034 25.5349 17.3034 24.884V12.1332C17.3034 11.7849 17.1201 11.4824 16.8176 11.3174ZM11.5834 14.0949H13.6459C14.0217 14.0949 14.3334 14.4065 14.3334 14.7824C14.3334 15.1674 14.0217 15.4699 13.6459 15.4699H11.5834C11.2076 15.4699 10.8959 15.1674 10.8959 14.7824C10.8959 14.4065 11.2076 14.0949 11.5834 14.0949ZM14.3334 18.2199H11.5834C11.2076 18.2199 10.8959 17.9174 10.8959 17.5324C10.8959 17.1565 11.2076 16.8449 11.5834 16.8449H14.3334C14.7092 16.8449 15.0209 17.1565 15.0209 17.5324C15.0209 17.9174 14.7092 18.2199 14.3334 18.2199Z" fill="#C9A301"/>
</svg>
