<svg width="36" height="36" viewBox="0 0 36 36" fill="none" xmlns="http://www.w3.org/2000/svg">
<rect width="36" height="36" rx="18" fill="#FFF6E5"/>
<rect x="0.421053" y="0.421053" width="35.1579" height="35.1579" rx="17.5789" stroke="black" stroke-opacity="0.03" stroke-width="0.842105"/>
<path d="M18 8.8335C12.94 8.8335 8.83337 12.9402 8.83337 18.0002C8.83337 23.0602 12.94 27.1668 18 27.1668C23.06 27.1668 27.1667 23.0602 27.1667 18.0002C27.1667 12.9402 23.06 8.8335 18 8.8335ZM18.3025 22.5835C18.1375 22.6385 17.8534 22.6385 17.6884 22.5835C16.2584 22.0977 13.05 20.0535 13.05 16.5885C13.05 15.0577 14.2784 13.8202 15.8 13.8202C16.6984 13.8202 17.4959 14.251 18 14.9293C18.495 14.2602 19.3017 13.8202 20.2 13.8202C21.7217 13.8202 22.95 15.0577 22.95 16.5885C22.95 20.0535 19.7417 22.0977 18.3025 22.5835Z" fill="#C9A301"/>
</svg>
