<svg width="36" height="36" viewBox="0 0 36 36" fill="none" xmlns="http://www.w3.org/2000/svg">
<rect width="36" height="36" rx="18" fill="#FFF6E5"/>
<rect x="0.421053" y="0.421053" width="35.1579" height="35.1579" rx="17.5789" stroke="black" stroke-opacity="0.03" stroke-width="0.842105"/>
<path d="M25.3333 18.0002V23.5002C25.3333 25.526 23.6925 27.1668 21.6666 27.1668H14.3333C12.3075 27.1668 10.6666 25.526 10.6666 23.5002V18.0002C10.6666 17.496 11.0791 17.0835 11.5833 17.0835H13.3891C13.8933 17.0835 14.3058 17.496 14.3058 18.0002V20.8785C14.3058 21.5568 14.6816 22.1802 15.2775 22.501C15.5433 22.6477 15.8366 22.721 16.1391 22.721C16.4875 22.721 16.8358 22.6202 17.1383 22.4185L18.0091 21.8502L18.8158 22.391C19.375 22.7668 20.09 22.8127 20.6858 22.4918C21.2908 22.171 21.6666 21.5568 21.6666 20.8693V18.0002C21.6666 17.496 22.0791 17.0835 22.5833 17.0835H24.4166C24.9208 17.0835 25.3333 17.496 25.3333 18.0002Z" fill="#C9A301"/>
<path d="M26.7083 13.4168V14.3335C26.7083 15.3418 26.2225 16.1668 24.875 16.1668H11.125C9.72246 16.1668 9.29163 15.3418 9.29163 14.3335V13.4168C9.29163 12.4085 9.72246 11.5835 11.125 11.5835H24.875C26.2225 11.5835 26.7083 12.4085 26.7083 13.4168Z" fill="#C9A301"/>
<path d="M17.67 11.5832H12.61C12.2983 11.244 12.3075 10.7215 12.6375 10.3915L13.9392 9.08982C14.2783 8.75066 14.8375 8.75066 15.1767 9.08982L17.67 11.5832Z" fill="#C9A301"/>
<path d="M23.3808 11.5832H18.3208L20.8141 9.08982C21.1533 8.75066 21.7125 8.75066 22.0516 9.08982L23.3533 10.3915C23.6833 10.7215 23.6925 11.244 23.3808 11.5832Z" fill="#C9A301"/>
<path d="M19.8058 17.0835C20.3099 17.0835 20.7224 17.496 20.7224 18.0002V20.8693C20.7224 21.6027 19.9066 22.0427 19.3016 21.6302L18.4766 21.0802C18.1741 20.8785 17.7799 20.8785 17.4683 21.0802L16.6066 21.6485C16.0016 22.0518 15.1949 21.6118 15.1949 20.8877V18.0002C15.1949 17.496 15.6074 17.0835 16.1116 17.0835H19.8058Z" fill="#C9A301"/>
</svg>
