<svg width="36" height="36" viewBox="0 0 36 36" fill="none" xmlns="http://www.w3.org/2000/svg">
<rect width="36" height="36" rx="18" fill="#FFF6E5"/>
<rect x="0.421053" y="0.421053" width="35.1579" height="35.1579" rx="17.5789" stroke="black" stroke-opacity="0.03" stroke-width="0.842105"/>
<path opacity="0.97" d="M21.8409 8.8335H14.1592C10.8225 8.8335 8.83337 10.8227 8.83337 14.1593V21.8318C8.83337 25.1777 10.8225 27.1668 14.1592 27.1668H21.8317C25.1684 27.1668 27.1575 25.1777 27.1575 21.841V14.1593C27.1667 10.8227 25.1775 8.8335 21.8409 8.8335ZM14.6175 21.951C13.9575 21.951 13.4167 21.4102 13.4167 20.7502C13.4167 20.0902 13.9575 19.5493 14.6175 19.5493C15.2775 19.5493 15.8184 20.0902 15.8184 20.7502C15.8184 21.4102 15.2775 21.951 14.6175 21.951ZM18 16.451C17.34 16.451 16.7992 15.9102 16.7992 15.2502C16.7992 14.5902 17.34 14.0493 18 14.0493C18.66 14.0493 19.2009 14.5902 19.2009 15.2502C19.2009 15.9102 18.66 16.451 18 16.451ZM21.3825 21.951C20.7225 21.951 20.1817 21.4102 20.1817 20.7502C20.1817 20.0902 20.7225 19.5493 21.3825 19.5493C22.0425 19.5493 22.5834 20.0902 22.5834 20.7502C22.5834 21.4102 22.0425 21.951 21.3825 21.951Z" fill="#C9A301"/>
</svg>
