<svg width="36" height="36" viewBox="0 0 36 36" fill="none" xmlns="http://www.w3.org/2000/svg">
<rect width="36" height="36" rx="18" fill="#FFF6E5"/>
<rect x="0.421053" y="0.421053" width="35.1579" height="35.1579" rx="17.5789" stroke="black" stroke-opacity="0.03" stroke-width="0.842105"/>
<path d="M25.5258 14.1682L18.4675 18.2565C18.1833 18.4215 17.8258 18.4215 17.5325 18.2565L10.4741 14.1682C9.96995 13.8748 9.84162 13.1873 10.2266 12.7565C10.4925 12.454 10.795 12.2065 11.1158 12.0323L16.0841 9.28232C17.1475 8.68649 18.8708 8.68649 19.9341 9.28232L24.9025 12.0323C25.2233 12.2065 25.5258 12.4632 25.7916 12.7565C26.1583 13.1873 26.03 13.8748 25.5258 14.1682Z" fill="#C9A301"/>
<path d="M17.4775 19.9615V26.2131C17.4775 26.9098 16.7717 27.3681 16.1484 27.0656C14.26 26.1398 11.0792 24.4073 11.0792 24.4073C9.96086 23.7748 9.04419 22.1798 9.04419 20.869V16.139C9.04419 15.4148 9.80502 14.9565 10.4284 15.314L17.0192 19.1365C17.2942 19.3106 17.4775 19.6223 17.4775 19.9615Z" fill="#C9A301"/>
<path d="M18.5225 19.9615V26.2131C18.5225 26.9098 19.2283 27.3681 19.8516 27.0656C21.74 26.1398 24.9208 24.4073 24.9208 24.4073C26.0391 23.7748 26.9558 22.1798 26.9558 20.869V16.139C26.9558 15.4148 26.195 14.9565 25.5716 15.314L18.9808 19.1365C18.7058 19.3106 18.5225 19.6223 18.5225 19.9615Z" fill="#C9A301"/>
</svg>
