<svg width="36" height="36" viewBox="0 0 36 36" fill="none" xmlns="http://www.w3.org/2000/svg">
<rect width="36" height="36" rx="18" fill="#FFF6E5"/>
<rect x="0.421053" y="0.421053" width="35.1579" height="35.1579" rx="17.5789" stroke="black" stroke-opacity="0.03" stroke-width="0.842105"/>
<path d="M14.5991 12.766C14.2141 12.766 13.9116 12.4543 13.9116 12.0785V9.521C13.9116 9.14516 14.2141 8.8335 14.5991 8.8335C14.9841 8.8335 15.2866 9.14516 15.2866 9.521V12.0693C15.2866 12.4543 14.9841 12.766 14.5991 12.766Z" fill="#C9A301"/>
<path d="M21.4009 12.766C21.0159 12.766 20.7134 12.4543 20.7134 12.0785V9.521C20.7134 9.136 21.025 8.8335 21.4009 8.8335C21.7859 8.8335 22.0884 9.14516 22.0884 9.521V12.0693C22.0884 12.4543 21.7859 12.766 21.4009 12.766Z" fill="#C9A301"/>
<path d="M26.7083 21.5017C26.7083 21.6392 26.6625 21.7767 26.5433 21.8959C25.2142 23.2342 22.8492 25.6175 21.4925 26.9834C21.3733 27.1117 21.2175 27.1667 21.0617 27.1667C20.7592 27.1667 20.4658 26.9284 20.4658 26.58V23.3717C20.4658 22.0334 21.6025 20.9242 22.9958 20.9242C23.8667 20.915 25.0767 20.915 26.1125 20.915C26.47 20.915 26.7083 21.1992 26.7083 21.5017Z" fill="#C9A301"/>
<path d="M26.7083 21.5017C26.7083 21.6392 26.6625 21.7767 26.5433 21.8959C25.2142 23.2342 22.8492 25.6175 21.4925 26.9834C21.3733 27.1117 21.2175 27.1667 21.0617 27.1667C20.7592 27.1667 20.4658 26.9284 20.4658 26.58V23.3717C20.4658 22.0334 21.6025 20.9242 22.9958 20.9242C23.8667 20.915 25.0767 20.915 26.1125 20.915C26.47 20.915 26.7083 21.1992 26.7083 21.5017Z" fill="#C9A301"/>
<path d="M24.9391 11.1252C24.3341 10.676 23.4633 11.1068 23.4633 11.8677V11.9593C23.4633 13.0318 22.6933 14.0218 21.6208 14.1318C20.3833 14.2602 19.3383 13.2885 19.3383 12.0785V11.1252C19.3383 10.621 18.9258 10.2085 18.4216 10.2085H17.5783C17.0741 10.2085 16.6616 10.621 16.6616 11.1252V11.9593C16.6616 12.766 16.2308 13.5177 15.5616 13.8843C15.525 13.9118 15.4883 13.9302 15.4516 13.9485C15.4425 13.9485 15.4425 13.9577 15.4333 13.9577C15.3691 13.9852 15.305 14.0127 15.2316 14.0402C15.2133 14.0493 15.195 14.0493 15.1766 14.0585C15.0666 14.0952 14.9475 14.1227 14.8191 14.1318H14.81C14.6725 14.1502 14.5258 14.1502 14.3883 14.1318H14.3791C14.2508 14.1227 14.1316 14.0952 14.0216 14.0585C13.93 14.031 13.8383 13.9943 13.7466 13.9485C13.0316 13.6277 12.5366 12.9127 12.5366 12.0785V11.8677C12.5366 11.1618 11.785 10.7402 11.1891 11.0427C11.18 11.0518 11.1708 11.0518 11.1616 11.061H11.1525C11.0883 11.1068 11.0333 11.1527 10.9691 11.1985C10.8683 11.281 10.7675 11.3635 10.6758 11.4552C10.6116 11.5193 10.5475 11.5835 10.4925 11.6477C10.4191 11.721 10.355 11.7943 10.2908 11.8768C10.245 11.9318 10.19 11.9868 10.1533 12.051C10.1075 12.106 10.0708 12.1702 10.0341 12.2252C10.025 12.2343 10.0158 12.2435 10.0066 12.2618C9.92413 12.381 9.85079 12.5185 9.78663 12.6468C9.76829 12.6652 9.75913 12.6743 9.75913 12.6927C9.70413 12.8027 9.64913 12.9127 9.61246 13.0318C9.58496 13.0777 9.57579 13.1143 9.55746 13.1602C9.53913 13.1968 9.52996 13.2427 9.51163 13.2793C9.48413 13.371 9.45663 13.4718 9.42913 13.5727C9.39246 13.701 9.36496 13.8385 9.34663 13.976C9.32829 14.0768 9.31913 14.1777 9.30996 14.2877C9.30079 14.416 9.29163 14.5443 9.29163 14.6727V22.7027C9.29163 25.1685 11.29 27.1668 13.7558 27.1668H18.1741C18.6783 27.1668 19.0908 26.7543 19.0908 26.2502V23.3718C19.0908 21.2635 20.8416 19.5493 22.9958 19.5493C23.4816 19.5402 24.6641 19.5402 25.7916 19.5402C26.2958 19.5402 26.7083 19.1277 26.7083 18.6235V14.6727C26.7083 13.2152 26.0116 11.941 24.9391 11.1252ZM17.2025 21.5843C17.12 21.8593 16.8633 22.0518 16.5608 22.0518H13.2241C13.1783 22.0518 13.1416 22.0518 13.105 22.0335C12.775 21.9877 12.5366 21.7035 12.5366 21.3643C12.5366 20.9793 12.8391 20.6677 13.2241 20.6677H16.5608C16.9366 20.6677 17.2483 20.9793 17.2483 21.3643C17.2483 21.4377 17.2391 21.5202 17.2025 21.5843ZM19.7508 18.1835C19.6683 18.4585 19.4116 18.651 19.1091 18.651H13.2241C13.1783 18.651 13.1416 18.651 13.105 18.6327C12.775 18.5868 12.5366 18.3027 12.5366 17.9635C12.5366 17.5785 12.8391 17.2668 13.2241 17.2668H19.1091C19.4941 17.2668 19.7966 17.5785 19.7966 17.9635C19.7966 18.0368 19.7875 18.1193 19.7508 18.1835Z" fill="#C9A301"/>
</svg>
