<svg width="36" height="36" viewBox="0 0 36 36" fill="none" xmlns="http://www.w3.org/2000/svg">
<rect width="36" height="36" rx="18" fill="#ECFEFF"/>
<rect x="0.421053" y="0.421053" width="35.1579" height="35.1579" rx="17.5789" stroke="black" stroke-opacity="0.03" stroke-width="0.842105"/>
<path d="M26.3325 13.3984C25.5533 12.5367 24.2516 12.1059 22.3633 12.1059H22.1433V12.0692C22.1433 10.5292 22.1433 8.62256 18.6966 8.62256H17.3033C13.8566 8.62256 13.8566 10.5384 13.8566 12.0692V12.1151H13.6366C11.7391 12.1151 10.4466 12.5459 9.66745 13.4076C8.75995 14.4159 8.78745 15.7726 8.87912 16.6984L8.88829 16.7626L8.95741 17.4883C8.97167 17.6381 9.05247 17.7735 9.17841 17.8558C9.39977 18.0005 9.75492 18.2289 9.96995 18.3484C10.0983 18.4309 10.2358 18.5042 10.3733 18.5776C11.9408 19.4392 13.6641 20.0167 15.415 20.3009C15.4975 21.1626 15.8733 22.1709 17.8808 22.1709C19.8883 22.1709 20.2825 21.1717 20.3466 20.2826C22.2166 19.9801 24.0225 19.3292 25.6541 18.3759C25.7091 18.3484 25.7458 18.3209 25.7916 18.2934C26.1501 18.0908 26.5218 17.8418 26.8617 17.5972C26.9748 17.5157 27.047 17.3896 27.0624 17.2511L27.075 17.1384L27.1208 16.7076C27.13 16.6526 27.13 16.6067 27.1391 16.5426C27.2125 15.6167 27.1941 14.3517 26.3325 13.3984ZM18.9991 19.6776C18.9991 20.6492 18.9991 20.7959 17.8716 20.7959C16.7441 20.7959 16.7441 20.6217 16.7441 19.6867V18.5317H18.9991V19.6776ZM15.1675 12.1059V12.0692C15.1675 10.5109 15.1675 9.93339 17.3033 9.93339H18.6966C20.8325 9.93339 20.8325 10.5201 20.8325 12.0692V12.1151H15.1675V12.1059Z" fill="#0891B2"/>
<path d="M26.0675 19.6211C26.4213 19.4532 26.8277 19.7341 26.7923 20.1241L26.47 23.674C26.2775 25.5073 25.5259 27.3773 21.4925 27.3773H14.5075C10.4742 27.3773 9.72252 25.5073 9.53002 23.6832L9.22431 20.3203C9.18927 19.9349 9.58643 19.6544 9.93925 19.8136C10.9905 20.2878 12.847 21.0911 14.0148 21.401C14.179 21.4445 14.3119 21.5622 14.3849 21.7156C14.9456 22.8923 16.1484 23.5182 17.8809 23.5182C19.5962 23.5182 20.814 22.8682 21.3766 21.6883C21.4498 21.5348 21.5827 21.4172 21.747 21.3734C22.9878 21.0424 24.9666 20.1434 26.0675 19.6211Z" fill="#0891B2"/>
</svg>
