<svg width="36" height="36" viewBox="0 0 36 36" fill="none" xmlns="http://www.w3.org/2000/svg">
<rect width="36" height="36" rx="18" fill="#ECFEFF"/>
<rect x="0.421053" y="0.421053" width="35.1579" height="35.1579" rx="17.5789" stroke="black" stroke-opacity="0.03" stroke-width="0.842105"/>
<path d="M24.8843 12.3627L19.4393 9.2185C18.5501 8.70516 17.4501 8.70516 16.5518 9.2185L11.1159 12.3627C10.2268 12.876 9.67676 13.8293 9.67676 14.8652V21.1352C9.67676 22.1618 10.2268 23.1152 11.1159 23.6377L16.5609 26.7818C17.4501 27.2952 18.5501 27.2952 19.4484 26.7818L24.8934 23.6377C25.7826 23.1243 26.3326 22.171 26.3326 21.1352V14.8652C26.3234 13.8293 25.7734 12.8852 24.8843 12.3627ZM18.0001 13.7285C19.1826 13.7285 20.1359 14.6818 20.1359 15.8643C20.1359 17.0468 19.1826 18.0002 18.0001 18.0002C16.8176 18.0002 15.8643 17.0468 15.8643 15.8643C15.8643 14.691 16.8176 13.7285 18.0001 13.7285ZM20.4568 22.2718H15.5434C14.8009 22.2718 14.3701 21.4468 14.7826 20.8327C15.4059 19.9068 16.6159 19.2835 18.0001 19.2835C19.3843 19.2835 20.5943 19.9068 21.2176 20.8327C21.6301 21.4377 21.1901 22.2718 20.4568 22.2718Z" fill="#0891B2"/>
</svg>
