<svg width="36" height="36" viewBox="0 0 36 36" fill="none" xmlns="http://www.w3.org/2000/svg">
<rect width="36" height="36" rx="18" fill="#ECFEFF"/>
<rect x="0.421053" y="0.421053" width="35.1579" height="35.1579" rx="17.5789" stroke="black" stroke-opacity="0.03" stroke-width="0.842105"/>
<path d="M16.7166 10.8043C16.7166 10.9785 16.5699 11.1252 16.3958 11.1252H15.3599C13.3799 11.1252 11.7666 12.7385 11.7666 14.7185V23.1793C11.7666 23.3535 11.6199 23.5002 11.4458 23.5002H10.8041C9.71325 23.5002 8.83325 22.6202 8.83325 21.5293V10.8043C8.83325 9.7135 9.71325 8.8335 10.8041 8.8335H14.7458C15.8366 8.8335 16.7166 9.7135 16.7166 10.8043Z" fill="#0891B2"/>
<path d="M27.1668 10.8043V21.5293C27.1668 22.6202 26.2868 23.5002 25.1959 23.5002H24.6184C24.4443 23.5002 24.2976 23.3535 24.2976 23.1793V14.7185C24.2976 12.7385 22.6843 11.1252 20.7043 11.1252H19.6043C19.4301 11.1252 19.2834 10.9785 19.2834 10.8043C19.2834 9.7135 20.1634 8.8335 21.2543 8.8335H25.1959C26.2868 8.8335 27.1668 9.7135 27.1668 10.8043Z" fill="#0891B2"/>
<path d="M20.7041 12.5H15.3599C14.1316 12.5 13.1416 13.49 13.1416 14.7183V24.9483C13.1416 26.1767 14.1316 27.1667 15.3599 27.1667H16.8541C17.1108 27.1667 17.3124 26.965 17.3124 26.7083V24.4167C17.3124 24.0408 17.6241 23.7292 17.9999 23.7292C18.3758 23.7292 18.6874 24.0408 18.6874 24.4167V26.7083C18.6874 26.965 18.8891 27.1667 19.1458 27.1667H20.7133C21.9324 27.1667 22.9224 26.1767 22.9224 24.9575V14.7183C22.9224 13.49 21.9324 12.5 20.7041 12.5ZM19.8333 20.5208H16.1666C15.7908 20.5208 15.4791 20.2092 15.4791 19.8333C15.4791 19.4575 15.7908 19.1458 16.1666 19.1458H19.8333C20.2091 19.1458 20.5208 19.4575 20.5208 19.8333C20.5208 20.2092 20.2091 20.5208 19.8333 20.5208ZM19.8333 17.7708H16.1666C15.7908 17.7708 15.4791 17.4592 15.4791 17.0833C15.4791 16.7075 15.7908 16.3958 16.1666 16.3958H19.8333C20.2091 16.3958 20.5208 16.7075 20.5208 17.0833C20.5208 17.4592 20.2091 17.7708 19.8333 17.7708Z" fill="#0891B2"/>
</svg>
