<svg width="36" height="36" viewBox="0 0 36 36" fill="none" xmlns="http://www.w3.org/2000/svg">
<rect width="36" height="36" rx="18" fill="#ECFEFF"/>
<rect x="0.421053" y="0.421053" width="35.1579" height="35.1579" rx="17.5789" stroke="black" stroke-opacity="0.03" stroke-width="0.842105"/>
<path opacity="0.97" d="M21.8408 8.8335H14.1591C10.8224 8.8335 8.83325 10.8227 8.83325 14.1593V21.8318C8.83325 25.1777 10.8224 27.1668 14.1591 27.1668H21.8316C25.1683 27.1668 27.1574 25.1777 27.1574 21.841V14.1593C27.1666 10.8227 25.1774 8.8335 21.8408 8.8335ZM14.6174 21.951C13.9574 21.951 13.4166 21.4102 13.4166 20.7502C13.4166 20.0902 13.9574 19.5493 14.6174 19.5493C15.2774 19.5493 15.8183 20.0902 15.8183 20.7502C15.8183 21.4102 15.2774 21.951 14.6174 21.951ZM17.9999 16.451C17.3399 16.451 16.7991 15.9102 16.7991 15.2502C16.7991 14.5902 17.3399 14.0493 17.9999 14.0493C18.6599 14.0493 19.2008 14.5902 19.2008 15.2502C19.2008 15.9102 18.6599 16.451 17.9999 16.451ZM21.3824 21.951C20.7224 21.951 20.1816 21.4102 20.1816 20.7502C20.1816 20.0902 20.7224 19.5493 21.3824 19.5493C22.0424 19.5493 22.5833 20.0902 22.5833 20.7502C22.5833 21.4102 22.0424 21.951 21.3824 21.951Z" fill="#0891B2"/>
</svg>
