<svg width="36" height="36" viewBox="0 0 36 36" fill="none" xmlns="http://www.w3.org/2000/svg">
<rect width="36" height="36" rx="18" fill="#ECFEFF"/>
<rect x="0.421053" y="0.421053" width="35.1579" height="35.1579" rx="17.5789" stroke="black" stroke-opacity="0.03" stroke-width="0.842105"/>
<path d="M23.5 24.2881H22.8033C22.07 24.2881 21.3733 24.5723 20.86 25.0856L19.2925 26.6348C18.5775 27.3406 17.4133 27.3406 16.6983 26.6348L15.1308 25.0856C14.6175 24.5723 13.9117 24.2881 13.1875 24.2881H12.5C10.9783 24.2881 9.75 23.069 9.75 21.5656V11.5648C9.75 10.0614 10.9783 8.84229 12.5 8.84229H23.5C25.0217 8.84229 26.25 10.0614 26.25 11.5648V21.5656C26.25 23.0598 25.0217 24.2881 23.5 24.2881Z" fill="#0891B2" stroke="white" stroke-miterlimit="10" stroke-linecap="round" stroke-linejoin="round"/>
<path d="M17.9999 16.1667C19.1795 16.1667 20.1357 15.2104 20.1357 14.0308C20.1357 12.8512 19.1795 11.895 17.9999 11.895C16.8203 11.895 15.864 12.8512 15.864 14.0308C15.864 15.2104 16.8203 16.1667 17.9999 16.1667Z" stroke="white" stroke-linecap="round" stroke-linejoin="round"/>
<path d="M21.6666 21.355C21.6666 19.705 20.0258 18.3667 17.9999 18.3667C15.9741 18.3667 14.3333 19.705 14.3333 21.355" stroke="white" stroke-linecap="round" stroke-linejoin="round"/>
</svg>
