<svg width="36" height="36" viewBox="0 0 36 36" fill="none" xmlns="http://www.w3.org/2000/svg">
<rect width="36" height="36" rx="18" fill="#E5F2FF"/>
<rect x="0.421053" y="0.421053" width="35.1579" height="35.1579" rx="17.5789" stroke="black" stroke-opacity="0.03" stroke-width="0.842105"/>
<path d="M19.1 10.3002C19.1 10.0085 18.9841 9.72867 18.7778 9.52238C18.5715 9.31609 18.2917 9.2002 18 9.2002C17.7082 9.2002 17.4284 9.31609 17.2221 9.52238C17.0158 9.72867 16.9 10.0085 16.9 10.3002V11.4002C16.9 11.6919 17.0158 11.9717 17.2221 12.178C17.4284 12.3843 17.7082 12.5002 18 12.5002C18.2917 12.5002 18.5715 12.3843 18.7778 12.178C18.9841 11.9717 19.1 11.6919 19.1 11.4002V10.3002ZM24.2226 13.3329C24.423 13.1254 24.5339 12.8476 24.5314 12.5592C24.5289 12.2707 24.4132 11.9948 24.2093 11.7909C24.0053 11.5869 23.7294 11.4713 23.441 11.4688C23.1526 11.4662 22.8747 11.5771 22.6672 11.7775L21.8896 12.5552C21.6892 12.7627 21.5783 13.0405 21.5808 13.3289C21.5833 13.6174 21.699 13.8932 21.9029 14.0972C22.1069 14.3011 22.3828 14.4168 22.6712 14.4193C22.9596 14.4218 23.2375 14.311 23.445 14.1106L24.2226 13.3329ZM26.7999 18.0002C26.7999 18.2919 26.6841 18.5717 26.4778 18.778C26.2715 18.9843 25.9917 19.1002 25.6999 19.1002H24.5999C24.3082 19.1002 24.0284 18.9843 23.8221 18.778C23.6158 18.5717 23.5 18.2919 23.5 18.0002C23.5 17.7085 23.6158 17.4287 23.8221 17.2224C24.0284 17.0161 24.3082 16.9002 24.5999 16.9002H25.6999C25.9917 16.9002 26.2715 17.0161 26.4778 17.2224C26.6841 17.4287 26.7999 17.7085 26.7999 18.0002ZM12.555 14.1106C12.6564 14.2157 12.7778 14.2995 12.912 14.3571C13.0462 14.4148 13.1906 14.4451 13.3366 14.4464C13.4827 14.4476 13.6275 14.4198 13.7627 14.3645C13.8979 14.3092 14.0207 14.2275 14.124 14.1242C14.2273 14.0209 14.3089 13.8981 14.3643 13.7629C14.4196 13.6278 14.4474 13.4829 14.4461 13.3369C14.4449 13.1908 14.4145 13.0465 14.3569 12.9123C14.2992 12.778 14.2154 12.6567 14.1104 12.5552L13.3327 11.7775C13.1252 11.5771 12.8473 11.4662 12.5589 11.4688C12.2705 11.4713 11.9946 11.5869 11.7907 11.7909C11.5867 11.9948 11.471 12.2707 11.4685 12.5592C11.466 12.8476 11.5769 13.1254 11.7773 13.3329L12.555 14.1106ZM12.5 18.0002C12.5 18.2919 12.3841 18.5717 12.1778 18.778C11.9715 18.9843 11.6917 19.1002 11.4 19.1002H10.3C10.0082 19.1002 9.72842 18.9843 9.52213 18.778C9.31584 18.5717 9.19995 18.2919 9.19995 18.0002C9.19995 17.7085 9.31584 17.4287 9.52213 17.2224C9.72842 17.0161 10.0082 16.9002 10.3 16.9002H11.4C11.6917 16.9002 11.9715 17.0161 12.1778 17.2224C12.3841 17.4287 12.5 17.7085 12.5 18.0002ZM15.8 24.6002V23.5002H20.2V24.6002C20.2 25.1837 19.9682 25.7432 19.5556 26.1558C19.143 26.5684 18.5834 26.8002 18 26.8002C17.4165 26.8002 16.8569 26.5684 16.4443 26.1558C16.0317 25.7432 15.8 25.1837 15.8 24.6002ZM20.2 22.4002C20.2165 22.0262 20.4288 21.6896 20.7247 21.4553C21.4426 20.8891 21.9663 20.1133 22.223 19.2357C22.4797 18.3581 22.4566 17.4223 22.157 16.5585C21.8573 15.6946 21.296 14.9455 20.551 14.4154C19.806 13.8853 18.9143 13.6004 18 13.6004C17.0856 13.6004 16.1939 13.8853 15.4489 14.4154C14.7039 14.9455 14.1426 15.6946 13.8429 16.5585C13.5433 17.4223 13.5202 18.3581 13.7769 19.2357C14.0336 20.1133 14.5573 20.8891 15.2753 21.4553C15.5723 21.6896 15.7835 22.0262 15.7989 22.4002H20.2Z" fill="#0062CC"/>
</svg>
