<svg width="36" height="36" viewBox="0 0 36 36" fill="none" xmlns="http://www.w3.org/2000/svg">
<rect width="36" height="36" rx="18" fill="#E5F2FF"/>
<rect x="0.421053" y="0.421053" width="35.1579" height="35.1579" rx="17.5789" stroke="black" stroke-opacity="0.03" stroke-width="0.842105"/>
<path d="M21.8408 8.8335H14.1591C10.8224 8.8335 8.83325 10.8227 8.83325 14.1593V21.8318C8.83325 25.1777 10.8224 27.1668 14.1591 27.1668H21.8316C25.1683 27.1668 27.1574 25.1777 27.1574 21.841V14.1593C27.1666 10.8227 25.1774 8.8335 21.8408 8.8335ZM21.4374 21.4377H14.5624C14.1866 21.4377 13.8749 21.126 13.8749 20.7502C13.8749 20.3743 14.1866 20.0627 14.5624 20.0627H21.4374C21.8133 20.0627 22.1249 20.3743 22.1249 20.7502C22.1249 21.126 21.8133 21.4377 21.4374 21.4377ZM21.4374 15.9377H14.5624C14.1866 15.9377 13.8749 15.626 13.8749 15.2502C13.8749 14.8743 14.1866 14.5627 14.5624 14.5627H21.4374C21.8133 14.5627 22.1249 14.8743 22.1249 15.2502C22.1249 15.626 21.8133 15.9377 21.4374 15.9377Z" fill="#0062CC"/>
</svg>
