<svg width="36" height="36" viewBox="0 0 36 36" fill="none" xmlns="http://www.w3.org/2000/svg">
<rect width="36" height="36" rx="18" fill="#E5F2FF"/>
<rect x="0.421053" y="0.421053" width="35.1579" height="35.1579" rx="17.5789" stroke="black" stroke-opacity="0.03" stroke-width="0.842105"/>
<path d="M15.2499 8.8335C12.8483 8.8335 10.8958 10.786 10.8958 13.1877C10.8958 15.5435 12.7383 17.4502 15.1399 17.5327C15.2133 17.5235 15.2866 17.5235 15.3416 17.5327C15.3599 17.5327 15.3691 17.5327 15.3874 17.5327C15.3966 17.5327 15.3966 17.5327 15.4058 17.5327C17.7524 17.4502 19.5949 15.5435 19.6041 13.1877C19.6041 10.786 17.6516 8.8335 15.2499 8.8335Z" fill="#0062CC"/>
<path d="M19.9066 19.9706C17.3491 18.2656 13.1783 18.2656 10.6025 19.9706C9.4383 20.7498 8.79663 21.804 8.79663 22.9315C8.79663 24.059 9.4383 25.104 10.5933 25.874C11.8766 26.7356 13.5633 27.1665 15.25 27.1665C16.9366 27.1665 18.6233 26.7356 19.9066 25.874C21.0616 25.0948 21.7033 24.0498 21.7033 22.9131C21.6941 21.7856 21.0616 20.7406 19.9066 19.9706Z" fill="#0062CC"/>
<path d="M25.3241 13.7281C25.4707 15.5064 24.2057 17.0648 22.4549 17.2756C22.4457 17.2756 22.4457 17.2756 22.4366 17.2756H22.4091C22.3541 17.2756 22.2991 17.2756 22.2532 17.2939C21.3641 17.3398 20.5482 17.0556 19.9341 16.5331C20.8782 15.6898 21.4191 14.4248 21.3091 13.0498C21.2449 12.3073 20.9882 11.6289 20.6032 11.0514C20.9516 10.8773 21.3549 10.7673 21.7674 10.7306C23.5641 10.5748 25.1682 11.9131 25.3241 13.7281Z" fill="#0062CC"/>
<path d="M27.1576 22.2075C27.0842 23.0967 26.5159 23.8667 25.5626 24.3892C24.6459 24.8934 23.4909 25.1317 22.3451 25.1042C23.0051 24.5084 23.3901 23.7659 23.4634 22.9775C23.5551 21.8409 23.0142 20.75 21.9326 19.8792C21.3184 19.3934 20.6034 19.0084 19.8242 18.7242C21.8501 18.1375 24.3984 18.5317 25.9659 19.7967C26.8092 20.475 27.2401 21.3275 27.1576 22.2075Z" fill="#0062CC"/>
</svg>
