<svg width="36" height="36" viewBox="0 0 36 36" fill="none" xmlns="http://www.w3.org/2000/svg">
<rect width="36" height="36" rx="18" fill="#FFF6E5"/>
<rect x="0.421053" y="0.421053" width="35.1579" height="35.1579" rx="17.5789" stroke="black" stroke-opacity="0.03" stroke-width="0.842105"/>
<path d="M21.6666 15.0208C21.2908 15.0208 20.9791 14.7091 20.9791 14.3333V11.125C20.9791 10.135 20.365 9.52081 19.375 9.52081H16.625C15.635 9.52081 15.0208 10.135 15.0208 11.125V14.3333C15.0208 14.7091 14.7091 15.0208 14.3333 15.0208C13.9575 15.0208 13.6458 14.7091 13.6458 14.3333V11.125C13.6458 9.37415 14.8741 8.14581 16.625 8.14581H19.375C21.1258 8.14581 22.3541 9.37415 22.3541 11.125V14.3333C22.3541 14.7091 22.0425 15.0208 21.6666 15.0208Z" fill="#EBCB42"/>
<path d="M14.3334 23.2983C13.9575 23.2983 13.6459 22.9866 13.6459 22.6108C13.6459 22.2258 13.9575 21.9233 14.3334 21.9233H25.1134C25.3884 21.9233 25.5992 21.685 25.5717 21.41L24.9484 16.1941C24.7284 14.4158 24.4167 12.9583 21.3 12.9583H14.7C11.5834 12.9583 11.2717 14.4158 11.0609 16.1941L10.2359 23.0691C9.97002 25.3241 10.6667 27.1666 13.8842 27.1666H22.1159C25.0125 27.1666 25.865 25.6725 25.8192 23.7291C25.81 23.4816 25.6084 23.2983 25.3609 23.2983H14.3334Z" fill="#EBCB42"/>
</svg>
