<svg width="36" height="36" viewBox="0 0 36 36" fill="none" xmlns="http://www.w3.org/2000/svg">
<rect width="36" height="36" rx="18" fill="#E6F7EA"/>
<rect x="0.421053" y="0.421053" width="35.1579" height="35.1579" rx="17.5789" stroke="black" stroke-opacity="0.03" stroke-width="0.842105"/>
<path d="M17.1291 20.7041L15.4333 22.4C15.0758 22.7575 14.5075 22.7575 14.1408 22.4091C14.04 22.3083 13.9391 22.2166 13.8383 22.1158C12.8941 21.1625 12.0416 20.1633 11.2808 19.1183C10.5291 18.0733 9.92415 17.0283 9.48415 15.9925C9.05331 14.9475 8.83331 13.9483 8.83331 12.995C8.83331 12.3716 8.94331 11.7758 9.16331 11.2258C9.38331 10.6666 9.73165 10.1533 10.2175 9.69498C10.8041 9.11748 11.4458 8.83331 12.1241 8.83331C12.3808 8.83331 12.6375 8.88831 12.8666 8.99831C13.105 9.10831 13.3158 9.27331 13.4808 9.51165L15.6075 12.5091C15.7725 12.7383 15.8916 12.9491 15.9741 13.1508C16.0566 13.3433 16.1025 13.5358 16.1025 13.71C16.1025 13.93 16.0383 14.15 15.91 14.3608C15.7908 14.5716 15.6166 14.7916 15.3966 15.0116L14.7 15.7358C14.5991 15.8366 14.5533 15.9558 14.5533 16.1025C14.5533 16.1758 14.5625 16.24 14.5808 16.3133C14.6083 16.3866 14.6358 16.4416 14.6541 16.4966C14.8191 16.7991 15.1033 17.1933 15.5066 17.67C15.9191 18.1466 16.3591 18.6325 16.8358 19.1183C16.9275 19.21 17.0283 19.3016 17.12 19.3933C17.4866 19.7508 17.4958 20.3375 17.1291 20.7041Z" fill="#0BB02F"/>
<path d="M22.2531 20.37C22.354 20.37 22.4734 20.3907 22.6232 20.452C22.7806 20.5164 22.9575 20.6138 23.1642 20.7538V20.7548L26.1984 22.9081L26.2033 22.912C26.3338 23.0024 26.4221 23.0948 26.4826 23.1913L26.5344 23.2889C26.6037 23.4662 26.6389 23.6277 26.6389 23.8026C26.6388 23.9998 26.6028 24.2076 26.5305 24.411L26.4631 24.578L26.4582 24.5878C26.3223 24.8756 26.1469 25.1456 25.9162 25.4003C25.5617 25.7909 25.1846 26.0782 24.7726 26.2762L24.6584 26.327L24.5676 26.3641C24.0869 26.5597 23.5642 26.6668 22.9963 26.6669C22.1404 26.6669 21.2073 26.4657 20.2033 26.038C19.3145 25.6592 18.4216 25.1631 17.5305 24.5487L17.1486 24.2782C16.9435 24.1257 16.7441 23.975 16.549 23.8241L18.8527 21.5194C18.9908 21.6102 19.1215 21.688 19.2433 21.7518L19.2668 21.7635L19.2902 21.7733C19.2999 21.7772 19.314 21.7835 19.343 21.7968C19.3686 21.8085 19.4047 21.825 19.4435 21.8417L19.4543 21.8466L19.465 21.8505C19.6114 21.9054 19.7491 21.9188 19.8703 21.9188C20.1657 21.9187 20.4094 21.8055 20.5988 21.6161L21.2941 20.9315L21.2961 20.9296C21.505 20.7206 21.6846 20.5838 21.8342 20.5057L21.8488 20.4979L21.8625 20.4891C22.0046 20.4027 22.1266 20.37 22.2531 20.37Z" fill="#0BB02F" stroke="#0BB02F"/>
</svg>
