<svg width="36" height="36" viewBox="0 0 36 36" fill="none" xmlns="http://www.w3.org/2000/svg">
<rect width="36" height="36" rx="18" fill="#FDF2F8"/>
<rect x="0.421053" y="0.421053" width="35.1579" height="35.1579" rx="17.5789" stroke="black" stroke-opacity="0.03" stroke-width="0.842105"/>
<path d="M25.6633 18.6692C25.3242 18.6692 25.04 18.4125 25.0033 18.0733C24.7833 16.0567 23.7017 14.2417 22.0333 13.0867C21.7308 12.8758 21.6575 12.4633 21.8683 12.1608C22.0792 11.8583 22.4917 11.785 22.7942 11.9958C24.7833 13.38 26.0667 15.5433 26.3325 17.9358C26.3692 18.3025 26.1033 18.6325 25.7367 18.6692C25.7092 18.6692 25.6908 18.6692 25.6633 18.6692Z" fill="#EC4899"/>
<path d="M10.4283 18.715C10.41 18.715 10.3825 18.715 10.3642 18.715C9.9975 18.6783 9.73167 18.3483 9.76833 17.9817C10.0158 15.5892 11.2808 13.4258 13.2517 12.0325C13.545 11.8217 13.9667 11.895 14.1775 12.1883C14.3883 12.4908 14.315 12.9033 14.0217 13.1142C12.3717 14.2875 11.2992 16.1025 11.0975 18.11C11.0608 18.4583 10.7675 18.715 10.4283 18.715Z" fill="#EC4899"/>
<path d="M21.6575 26.3416C20.53 26.8825 19.32 27.1575 18.055 27.1575C16.735 27.1575 15.4791 26.8641 14.3058 26.2683C13.9758 26.1125 13.8475 25.7091 14.0125 25.3791C14.1683 25.0491 14.5716 24.9208 14.9016 25.0766C15.4791 25.37 16.0933 25.5716 16.7166 25.6908C17.56 25.8558 18.4216 25.865 19.265 25.7183C19.8883 25.6083 20.5025 25.4158 21.0708 25.1408C21.41 24.985 21.8133 25.1133 21.96 25.4525C22.125 25.7825 21.9966 26.1858 21.6575 26.3416Z" fill="#EC4899"/>
<path d="M18.0458 8.84253C16.625 8.84253 15.4608 9.99753 15.4608 11.4275C15.4608 12.8575 16.6158 14.0125 18.0458 14.0125C19.4758 14.0125 20.6308 12.8575 20.6308 11.4275C20.6308 9.99753 19.4758 8.84253 18.0458 8.84253Z" fill="#EC4899"/>
<path d="M11.6292 19.7142C10.2084 19.7142 9.04419 20.8692 9.04419 22.2992C9.04419 23.7292 10.1992 24.8842 11.6292 24.8842C13.0592 24.8842 14.2142 23.7292 14.2142 22.2992C14.2142 20.8692 13.05 19.7142 11.6292 19.7142Z" fill="#EC4899"/>
<path d="M24.3708 19.7142C22.95 19.7142 21.7858 20.8692 21.7858 22.2992C21.7858 23.7292 22.9408 24.8842 24.3708 24.8842C25.8008 24.8842 26.9558 23.7292 26.9558 22.2992C26.9558 20.8692 25.8008 19.7142 24.3708 19.7142Z" fill="#EC4899"/>
</svg>
