<svg width="36" height="36" viewBox="0 0 36 36" fill="none" xmlns="http://www.w3.org/2000/svg">
<rect width="36" height="36" rx="18" fill="#ECFEFF"/>
<rect x="0.421053" y="0.421053" width="35.1579" height="35.1579" rx="17.5789" stroke="black" stroke-opacity="0.03" stroke-width="0.842105"/>
<path d="M22.2396 25.3425C20.6231 26.2758 18.7438 26.6496 16.8932 26.4059C15.0425 26.1623 13.324 25.3148 12.0042 23.9949C10.6843 22.675 9.83692 20.9564 9.59333 19.1058C9.34975 17.2552 9.72363 15.3759 10.657 13.7594C11.5903 12.143 13.031 10.8796 14.7555 10.1654C16.4801 9.4512 18.3921 9.32598 20.1951 9.8092C21.998 10.2924 23.5911 11.3571 24.7273 12.838C25.8635 14.3189 26.4793 16.1334 26.4792 18V19.375C26.4792 19.9828 26.2377 20.5657 25.8079 20.9954C25.3782 21.4252 24.7953 21.6667 24.1875 21.6667C23.5797 21.6667 22.9968 21.4252 22.567 20.9954C22.1373 20.5657 21.8958 19.9828 21.8958 19.375V18M21.8958 18C21.8958 18.5116 21.7951 19.0182 21.5993 19.4909C21.4035 19.9635 21.1165 20.393 20.7548 20.7548C20.393 21.1165 19.9635 21.4035 19.4909 21.5993C19.0182 21.795 18.5116 21.8958 18 21.8958C17.4884 21.8958 16.9818 21.795 16.5091 21.5993C16.0365 21.4035 15.607 21.1165 15.2452 20.7548C14.8835 20.393 14.5965 19.9635 14.4007 19.4909C14.2049 19.0182 14.1042 18.5116 14.1042 18C14.1042 16.9667 14.5146 15.9758 15.2452 15.2452C15.9758 14.5146 16.9668 14.1042 18 14.1042C19.0332 14.1042 20.0242 14.5146 20.7548 15.2452C21.4854 15.9758 21.8958 16.9667 21.8958 18ZM21.8958 18V14.1042" stroke="#06B6D4" stroke-width="1.5" stroke-linecap="round" stroke-linejoin="round"/>
</svg>
