<svg width="36" height="36" viewBox="0 0 36 36" fill="none" xmlns="http://www.w3.org/2000/svg">
<rect width="36" height="36" rx="18" fill="#F7FEE7"/>
<rect x="0.421053" y="0.421053" width="35.1579" height="35.1579" rx="17.5789" stroke="black" stroke-opacity="0.03" stroke-width="0.842105"/>
<path d="M26.25 26.25H9.75L10.3 24.6C10.5917 24.6 10.8715 24.4841 11.0778 24.2778C11.2841 24.0715 11.4 23.7917 11.4 23.5H17.45V22.95H18.55V23.5H24.6C24.6 23.7917 24.7159 24.0715 24.9222 24.2778C25.1285 24.4841 25.4083 24.6 25.7 24.6L26.25 26.25ZM10.85 21.3C10.85 21.1541 10.9079 21.0142 11.0111 20.9111C11.1142 20.8079 11.2541 20.75 11.4 20.75H11.4055C11.4715 17.7173 12.2085 14.9046 17.45 14.7182V14.15C17.3041 14.15 17.1642 14.0921 17.0611 13.9889C16.9579 13.8858 16.9 13.7459 16.9 13.6C16.9 13.4541 16.9579 13.3142 17.0611 13.2111C17.1642 13.1079 17.3041 13.05 17.45 13.05H18.55C18.6959 13.05 18.8358 13.1079 18.9389 13.2111C19.0421 13.3142 19.1 13.4541 19.1 13.6C19.1 13.7459 19.0421 13.8858 18.9389 13.9889C18.8358 14.0921 18.6959 14.15 18.55 14.15V14.7182C23.7921 14.9046 24.5285 17.7173 24.5945 20.75H24.6C24.7459 20.75 24.8858 20.8079 24.9889 20.9111C25.0921 21.0142 25.15 21.1541 25.15 21.3C25.15 21.4459 25.0921 21.5858 24.9889 21.6889C24.8858 21.7921 24.7459 21.85 24.6 21.85H11.4C11.2541 21.85 11.1142 21.7921 11.0111 21.6889C10.9079 21.5858 10.85 21.4459 10.85 21.3ZM18.5517 17.4445C18.5459 17.5166 18.5543 17.589 18.5766 17.6578C18.5988 17.7266 18.6344 17.7903 18.6813 17.8453C18.7282 17.9004 18.7855 17.9456 18.8499 17.9784C18.9143 18.0113 18.9845 18.0312 19.0566 18.0368C20.7412 18.1705 21.0024 18.66 21.1526 19.238C21.1707 19.308 21.2025 19.3736 21.246 19.4313C21.2895 19.4889 21.3439 19.5375 21.4062 19.5741C21.4684 19.6107 21.5373 19.6347 21.6088 19.6447C21.6803 19.6547 21.7531 19.6505 21.8231 19.6324C21.893 19.6143 21.9586 19.5825 22.0163 19.539C22.0739 19.4955 22.1225 19.4411 22.1591 19.3788C22.1957 19.3166 22.2197 19.2477 22.2297 19.1762C22.2397 19.1047 22.2355 19.0319 22.2174 18.962C21.883 17.6722 20.992 17.0865 19.1435 16.9402C19.0713 16.9339 18.9987 16.9421 18.9298 16.9642C18.8608 16.9862 18.797 17.0218 18.7419 17.0688C18.6868 17.1158 18.6417 17.1732 18.609 17.2378C18.5763 17.3024 18.5568 17.3729 18.5517 17.4451V17.4445ZM18 11.95C18.1459 11.95 18.2858 11.8921 18.3889 11.7889C18.4921 11.6858 18.55 11.5459 18.55 11.4V10.3C18.55 10.1541 18.4921 10.0142 18.3889 9.91109C18.2858 9.80795 18.1459 9.75 18 9.75C17.8541 9.75 17.7142 9.80795 17.6111 9.91109C17.5079 10.0142 17.45 10.1541 17.45 10.3V11.4C17.45 11.5459 17.5079 11.6858 17.6111 11.7889C17.7142 11.8921 17.8541 11.95 18 11.95ZM12.1112 12.8888C12.1621 12.9401 12.2227 12.9808 12.2894 13.0085C12.3562 13.0363 12.4277 13.0506 12.5 13.0506C12.5723 13.0506 12.6438 13.0363 12.7106 13.0085C12.7773 12.9808 12.8379 12.9401 12.8888 12.8888C12.992 12.7857 13.0499 12.6458 13.0499 12.5C13.0499 12.3542 12.992 12.2143 12.8888 12.1112L12.3389 11.5612C12.2881 11.5086 12.2274 11.4667 12.1603 11.4379C12.0932 11.4091 12.021 11.3939 11.948 11.3933C11.875 11.3926 11.8026 11.4065 11.735 11.4342C11.6674 11.4619 11.606 11.5027 11.5543 11.5543C11.5027 11.606 11.4619 11.6674 11.4342 11.735C11.4065 11.8026 11.3926 11.875 11.3933 11.948C11.3939 12.021 11.4091 12.0932 11.4379 12.1603C11.4667 12.2274 11.5086 12.2881 11.5612 12.3389L12.1112 12.8888ZM23.5 13.05C23.5722 13.0501 23.6438 13.0359 23.7105 13.0082C23.7772 12.9806 23.8378 12.94 23.8889 12.8888L24.4389 12.3389C24.4914 12.2881 24.5333 12.2274 24.5621 12.1603C24.5909 12.0932 24.6061 12.021 24.6067 11.948C24.6074 11.875 24.5935 11.8026 24.5658 11.735C24.5381 11.6674 24.4973 11.606 24.4457 11.5543C24.394 11.5027 24.3326 11.4619 24.265 11.4342C24.1974 11.4065 24.125 11.3926 24.052 11.3933C23.979 11.3939 23.9068 11.4091 23.8397 11.4379C23.7726 11.4667 23.7119 11.5086 23.6611 11.5612L23.1111 12.1112C23.0343 12.1881 22.9819 12.2861 22.9607 12.3927C22.9395 12.4994 22.9504 12.61 22.992 12.7105C23.0336 12.8109 23.1041 12.8968 23.1945 12.9573C23.2849 13.0177 23.3912 13.05 23.5 13.05Z" fill="#65A30D"/>
</svg>
