<svg width="36" height="36" viewBox="0 0 36 36" fill="none" xmlns="http://www.w3.org/2000/svg">
<rect width="36" height="36" rx="18" fill="#F7FEE7"/>
<rect x="0.421053" y="0.421053" width="35.1579" height="35.1579" rx="17.5789" stroke="black" stroke-opacity="0.03" stroke-width="0.842105"/>
<path d="M25.5258 14.1683L18.4675 18.2567C18.1833 18.4217 17.8258 18.4217 17.5325 18.2567L10.4741 14.1683C9.96995 13.875 9.84162 13.1875 10.2266 12.7567C10.4925 12.4542 10.795 12.2067 11.1158 12.0325L16.0841 9.28251C17.1475 8.68667 18.8708 8.68667 19.9341 9.28251L24.9025 12.0325C25.2233 12.2067 25.5258 12.4633 25.7916 12.7567C26.1583 13.1875 26.03 13.875 25.5258 14.1683Z" fill="#65A30D"/>
<path d="M17.4775 19.9617V26.2133C17.4775 26.91 16.7717 27.3683 16.1484 27.0658C14.26 26.14 11.0792 24.4075 11.0792 24.4075C9.96086 23.775 9.04419 22.18 9.04419 20.8692V16.1392C9.04419 15.415 9.80502 14.9567 10.4284 15.3142L17.0192 19.1367C17.2942 19.3108 17.4775 19.6225 17.4775 19.9617Z" fill="#65A30D"/>
<path d="M18.5225 19.9617V26.2133C18.5225 26.91 19.2283 27.3683 19.8516 27.0658C21.74 26.14 24.9208 24.4075 24.9208 24.4075C26.0391 23.775 26.9558 22.18 26.9558 20.8692V16.1392C26.9558 15.415 26.195 14.9567 25.5716 15.3142L18.9808 19.1367C18.7058 19.3108 18.5225 19.6225 18.5225 19.9617Z" fill="#65A30D"/>
</svg>
