<svg width="36" height="36" viewBox="0 0 36 36" fill="none" xmlns="http://www.w3.org/2000/svg">
<rect width="36" height="36" rx="18" fill="#F7FEE7"/>
<rect x="0.421053" y="0.421053" width="35.1579" height="35.1579" rx="17.5789" stroke="black" stroke-opacity="0.03" stroke-width="0.842105"/>
<g clip-path="url(#clip0_6040_12104)">
<path d="M25.9016 14.7459C24.9391 10.5109 21.245 8.60419 18 8.60419C18 8.60419 18 8.60419 17.9908 8.60419C14.755 8.60419 11.0516 10.5017 10.0891 14.7367C9.01663 19.4667 11.9133 23.4725 14.535 25.9934C15.5066 26.9284 16.7533 27.3959 18 27.3959C19.2466 27.3959 20.4933 26.9284 21.4558 25.9934C24.0775 23.4725 26.9741 19.4759 25.9016 14.7459ZM18 19.3384C16.405 19.3384 15.1125 18.0459 15.1125 16.4509C15.1125 14.8559 16.405 13.5634 18 13.5634C19.595 13.5634 20.8875 14.8559 20.8875 16.4509C20.8875 18.0459 19.595 19.3384 18 19.3384Z" fill="#65A30D"/>
</g>
<defs>
<clipPath id="clip0_6040_12104">
<rect width="22" height="22" fill="white" transform="translate(7 7)"/>
</clipPath>
</defs>
</svg>
