<svg width="36" height="36" viewBox="0 0 36 36" fill="none" xmlns="http://www.w3.org/2000/svg">
<rect width="36" height="36" rx="18" fill="#F7FEE7"/>
<rect x="0.421053" y="0.421053" width="35.1579" height="35.1579" rx="17.5789" stroke="black" stroke-opacity="0.03" stroke-width="0.842105"/>
<path d="M18 18C20.5313 18 22.5833 15.948 22.5833 13.4166C22.5833 10.8853 20.5313 8.83331 18 8.83331C15.4687 8.83331 13.4166 10.8853 13.4166 13.4166C13.4166 15.948 15.4687 18 18 18Z" fill="#65A30D"/>
<path d="M18 20.2917C13.4075 20.2917 9.66748 23.3717 9.66748 27.1667C9.66748 27.4234 9.86915 27.625 10.1258 27.625H25.8741C26.1308 27.625 26.3325 27.4234 26.3325 27.1667C26.3325 23.3717 22.5925 20.2917 18 20.2917Z" fill="#65A30D"/>
</svg>
