<svg width="36" height="36" viewBox="0 0 36 36" fill="none" xmlns="http://www.w3.org/2000/svg">
<rect width="36" height="36" rx="18" fill="#F7FEE7"/>
<rect x="0.421053" y="0.421053" width="35.1579" height="35.1579" rx="17.5789" stroke="black" stroke-opacity="0.03" stroke-width="0.842105"/>
<path d="M27.1667 11.4458V22.345C27.1667 23.2342 26.4425 24.05 25.5533 24.16L25.2692 24.1967C23.7658 24.3983 21.6483 25.0217 19.9433 25.7367C19.3475 25.9842 18.6875 25.535 18.6875 24.8842V12.1333C18.6875 11.7942 18.88 11.4825 19.1825 11.3175C20.86 10.41 23.3992 9.60333 25.1225 9.45667H25.1775C26.2775 9.45667 27.1667 10.3458 27.1667 11.4458Z" fill="#65A30D"/>
<path d="M16.8176 11.3175C15.1401 10.41 12.6009 9.60333 10.8776 9.45667H10.8134C9.71339 9.45667 8.82422 10.3458 8.82422 11.4458V22.345C8.82422 23.2342 9.54839 24.05 10.4376 24.16L10.7217 24.1967C12.2251 24.3983 14.3426 25.0217 16.0476 25.7367C16.6434 25.9842 17.3034 25.535 17.3034 24.8842V12.1333C17.3034 11.785 17.1201 11.4825 16.8176 11.3175ZM11.5834 14.095H13.6459C14.0217 14.095 14.3334 14.4067 14.3334 14.7825C14.3334 15.1675 14.0217 15.47 13.6459 15.47H11.5834C11.2076 15.47 10.8959 15.1675 10.8959 14.7825C10.8959 14.4067 11.2076 14.095 11.5834 14.095ZM14.3334 18.22H11.5834C11.2076 18.22 10.8959 17.9175 10.8959 17.5325C10.8959 17.1567 11.2076 16.845 11.5834 16.845H14.3334C14.7092 16.845 15.0209 17.1567 15.0209 17.5325C15.0209 17.9175 14.7092 18.22 14.3334 18.22Z" fill="#65A30D"/>
</svg>
