<svg width="36" height="36" viewBox="0 0 36 36" fill="none" xmlns="http://www.w3.org/2000/svg">
<rect width="36" height="36" rx="18" fill="#F7FEE7"/>
<rect x="0.421053" y="0.421053" width="35.1579" height="35.1579" rx="17.5789" stroke="black" stroke-opacity="0.03" stroke-width="0.842105"/>
<path d="M21.5112 15.4611C21.3832 15.1194 24.9175 11.9633 22.8568 9.40598C22.3745 8.80827 20.7383 12.2694 18.4148 13.8364C17.1328 14.7007 14.15 16.541 14.15 17.5584V24.1438C14.15 25.3671 18.8797 26.6626 22.4737 26.6626C23.7914 26.6626 25.7 18.4082 25.7 17.0973C25.7 15.7806 21.6373 15.8037 21.5112 15.4611ZM13.1875 15.5525C12.5542 15.5525 10.3 15.9375 10.3 18.5584V23.2246C10.3 25.8436 12.5542 26.1323 13.1875 26.1323C13.8208 26.1323 12.225 25.5818 12.225 23.9571V17.823C12.225 16.1213 13.8199 15.5525 13.1875 15.5525Z" fill="#65A30D"/>
</svg>
